<?xml version="1.0" encoding="utf-8"?>
<!-- Generator: Adobe Illustrator 19.0.0, SVG Export Plug-In . SVG Version: 6.00 Build 0)  -->
<svg version="1.1" id="Layer_1" xmlns="http://www.w3.org/2000/svg" xmlns:xlink="http://www.w3.org/1999/xlink" x="0px" y="0px"
	 viewBox="-368 422.9 261.1 157.1" style="enable-background:new -368 422.9 261.1 157.1;" xml:space="preserve">
<style type="text/css">
	.st0{fill:#387EF5;}
	.st1{fill:#444444;}
</style>
<g>
	<g>
		<path class="st0" d="M-233.8,484.1c-0.9,0-1.8,0-2.8,0c-0.6,0-0.9-0.1-0.9-0.8c0.1-2,0-3.9,0-5.9c0-0.7,0.2-0.9,0.9-0.9
			c1.9,0,3.8,0,5.7,0c0.6,0,0.9,0.1,0.9,0.8c0,2,0,3.9,0,5.9c0,0.7-0.2,0.9-0.9,0.9C-231.8,484.1-232.8,484.1-233.8,484.1z"/>
		<path class="st0" d="M-237.6,480.4c0,1,0,2,0,3c0,0.5-0.2,0.7-0.7,0.7c-2.1,0-4.2,0-6.2,0c-0.5,0-0.6-0.2-0.6-0.6
			c0-2.1,0-4.2,0-6.2c0-0.5,0.1-0.7,0.7-0.7c2,0,4.1,0,6.1,0c0.6,0,0.8,0.2,0.7,0.8C-237.6,478.4-237.6,479.4-237.6,480.4
			L-237.6,480.4z"/>
		<path class="st0" d="M-291.4,480.4c0,1,0,1.9,0,2.9c0,0.6-0.1,0.8-0.8,0.8c-2,0-4,0-6,0c-0.7,0-0.8-0.3-0.8-0.9c0-2,0-3.9,0-5.9
			c0-0.6,0.1-0.9,0.8-0.8c2,0,4,0,6,0c0.6,0,0.8,0.1,0.8,0.7C-291.4,478.3-291.4,479.4-291.4,480.4z"/>
		<path class="st0" d="M-314.2,480.2c0-1,0-1.9,0-2.9c0-0.6,0.2-0.8,0.8-0.8c2,0,4,0,6,0c0.6,0,0.7,0.2,0.7,0.8c0,2,0,4.1,0,6.1
			c0,0.5-0.2,0.7-0.7,0.7c-2,0-4.1,0-6.1,0c-0.6,0-0.8-0.2-0.7-0.7C-314.2,482.3-314.2,481.3-314.2,480.2L-314.2,480.2z"/>
		<path class="st0" d="M-318.2,484.1c-0.9,0-1.8,0-2.8,0c-0.6,0-0.9-0.1-0.9-0.8c0.1-2,0-3.9,0-5.9c0-0.6,0.1-0.9,0.8-0.8
			c2,0,4,0,6,0c0.7,0,0.8,0.3,0.8,0.8c0,2,0,3.9,0,5.9c0,0.7-0.3,0.9-0.9,0.8C-316.2,484.1-317.2,484.1-318.2,484.1z"/>
		<path class="st0" d="M-325.9,484c-1.2,0-2.8,0.5-3.5-0.1c-0.8-0.7-0.2-2.3-0.2-3.5c0-0.9,0-1.8,0-2.8c0-0.7,0.1-1.1,1-1
			c1.9,0.1,3.8,0,5.6,0c0.7,0,1,0.1,1,0.9c-0.1,1.9-0.1,3.8,0,5.7c0,0.8-0.3,0.9-1,0.9C-324,484.1-325,484.1-325.9,484
			C-325.9,484.1-325.9,484-325.9,484z"/>
		<path class="st0" d="M-333.4,476.6c1,0,1.9,0,2.9,0c0.6,0,0.8,0.2,0.8,0.8c0,2,0,4,0,6c0,0.6-0.2,0.7-0.8,0.7c-2,0-4.1,0-6.1,0
			c-0.5,0-0.7-0.2-0.7-0.7c0-2,0-4.1,0-6.1c0-0.6,0.2-0.8,0.8-0.7C-335.5,476.6-334.5,476.6-333.4,476.6z"/>
		<path class="st0" d="M-341.1,476.6c1,0,1.9,0,2.9,0c0.6,0,0.8,0.2,0.8,0.8c0,2,0,4,0,6c0,0.6-0.2,0.7-0.8,0.7c-2,0-4.1,0-6.1,0
			c-0.5,0-0.7-0.2-0.7-0.7c0-2,0-4.1,0-6.1c0-0.6,0.2-0.8,0.7-0.7C-343.2,476.6-342.2,476.6-341.1,476.6z"/>
		<path class="st0" d="M-360.6,480.4c0,1.2,0.5,2.8-0.1,3.5c-0.7,0.8-2.3,0.2-3.5,0.2s-2.8,0.5-3.5-0.2c-0.6-0.7-0.2-2.3-0.2-3.5
			s-0.4-2.9,0.2-3.6c0.7-0.8,2.4-0.2,3.6-0.2s2.7-0.5,3.4,0.2c0.6,0.6,0.2,2.2,0.2,3.3C-360.5,480.2-360.5,480.3-360.6,480.4
			C-360.5,480.4-360.6,480.4-360.6,480.4z"/>
		<path class="st0" d="M-107,553.3c0,0.9,0,1.8,0,2.6c0,0.7-0.1,1.1-1,1c-1.9-0.1-3.8,0-5.8,0c-0.6,0-0.8-0.2-0.8-0.8
			c0-2,0-3.9,0-5.9c0-0.6,0.1-0.9,0.8-0.8c2,0,4,0,6,0c0.6,0,0.7,0.2,0.7,0.8C-107,551.2-107,552.3-107,553.3L-107,553.3z"/>
		<path class="st0" d="M-114.7,553.3c0,1,0,1.9,0,2.9c0,0.6-0.1,0.9-0.8,0.8c-2,0-4,0-6,0c-0.7,0-0.8-0.2-0.8-0.8c0-2,0-3.9,0-5.9
			c0-0.6,0.1-0.9,0.8-0.9c2,0,4,0,6,0c0.7,0,0.8,0.3,0.8,0.8C-114.7,551.3-114.7,552.3-114.7,553.3L-114.7,553.3z"/>
		<path class="st0" d="M-141.6,556.9c-1,0-1.9,0-2.9,0c-0.7,0-0.8-0.2-0.8-0.8c0-2,0-3.9,0-5.9c0-0.6,0.2-0.8,0.8-0.8
			c2,0,3.9,0,5.9,0c0.6,0,0.9,0.1,0.8,0.8c0,2,0,4,0,6c0,0.6-0.2,0.8-0.7,0.8C-139.5,556.9-140.5,556.9-141.6,556.9z"/>
		<path class="st0" d="M-149.4,557c-1-0.1-2.6,0.5-3.2-0.2c-0.6-0.7-0.2-2.2-0.2-3.4c0-1,0-2.1,0-3.1c0-0.6,0.2-0.8,0.8-0.8
			c2,0,3.9,0,5.9,0c0.6,0,0.8,0.1,0.8,0.8c0,2,0,4,0,6c0,0.6-0.2,0.8-0.8,0.7C-147.2,556.9-148.2,557-149.4,557z"/>
		<path class="st0" d="M-360.5,488.2c-0.1,1,0.6,2.7-0.3,3.4c-0.7,0.6-2.3,0.2-3.6,0.2c-1,0-2,0-3,0c-0.5,0-0.7-0.1-0.7-0.7
			c0-2.1,0-4.1,0-6.2c0-0.6,0.3-0.6,0.7-0.6c2,0,4.1,0,6.1,0c0.5,0,0.7,0.1,0.7,0.7C-360.5,485.9-360.5,486.9-360.5,488.2z"/>
		<path class="st0" d="M-149.3,468.7c-1,0-2,0-3,0c-0.5,0-0.7-0.1-0.7-0.7c0-2,0-4.1,0-6.1c0-0.6,0.2-0.7,0.8-0.7c2,0,4,0,6,0
			c0.6,0,0.8,0.2,0.7,0.7c0,2,0,4,0,6c0,0.7-0.2,0.8-0.8,0.8C-147.3,468.7-148.3,468.7-149.3,468.7z"/>
		<path class="st0" d="M-107,561c0,1,0,2,0,3c0,0.5-0.2,0.7-0.7,0.7c-2,0-4.1,0-6.1,0c-0.6,0-0.7-0.2-0.7-0.8c0-2,0-4.1,0-6.1
			c0-0.5,0.2-0.7,0.7-0.7c2,0,4.1,0,6.1,0c0.6,0,0.7,0.2,0.7,0.8C-107,558.9-107,559.9-107,561z"/>
		<path class="st0" d="M-118.5,564.6c-1-0.1-2.7,0.5-3.4-0.2c-0.6-0.7-0.2-2.3-0.2-3.6c0-1,0-1.9,0-2.9c0-0.6,0.1-0.9,0.8-0.8
			c2,0,4,0,6,0c0.7,0,0.8,0.3,0.8,0.8c0,2,0,3.9,0,5.9c0,0.7-0.3,0.9-0.9,0.8C-116.5,564.6-117.4,564.6-118.5,564.6z"/>
		<path class="st0" d="M-126.2,564.6c-1-0.1-2.7,0.5-3.4-0.3c-0.6-0.7-0.2-2.3-0.2-3.6c0-1,0-1.9,0-2.9c0-0.6,0.1-0.8,0.8-0.8
			c2,0,3.9,0,5.9,0c0.7,0,0.9,0.2,0.9,0.9c0,2,0,3.9,0,5.9c0,0.6-0.1,0.9-0.8,0.8C-124.1,564.6-125,564.6-126.2,564.6z"/>
		<path class="st0" d="M-145.4,560.9c0,1,0,1.9,0,2.9c0,0.6-0.1,0.9-0.8,0.8c-2,0-4,0-6,0c-0.7,0-0.8-0.3-0.8-0.8c0-2,0-3.9,0-5.9
			c0-0.6,0.1-0.9,0.8-0.8c2,0,4,0,6,0c0.7,0,0.8,0.3,0.8,0.8C-145.4,559-145.4,560-145.4,560.9z"/>
		<path class="st0" d="M-337.1,560.8c0-0.9,0.1-1.8,0-2.8c-0.1-0.8,0.1-1.2,1.1-1.2c1.9,0.1,3.8,0,5.6,0c0.6,0,0.8,0.1,0.8,0.8
			c0,2,0,4,0,6c0,0.7-0.3,0.8-0.8,0.8c-2,0-3.9,0-5.9,0c-0.7,0-0.9-0.3-0.8-0.9C-337.1,562.7-337.1,561.7-337.1,560.8z"/>
		<path class="st0" d="M-356.4,564.5c-1,0-1.9,0-2.9,0c-0.6,0-0.9-0.1-0.9-0.8c0.1-2,0-3.9,0-5.9c0-0.6,0.1-0.9,0.8-0.8c2,0,4,0,6,0
			c0.7,0,0.8,0.2,0.8,0.8c0,2,0,3.9,0,5.9c0,0.7-0.2,0.9-0.9,0.8C-354.5,564.4-355.4,564.5-356.4,564.5z"/>
		<path class="st0" d="M-364.1,564.5c-1,0-1.9,0-2.9,0c-0.6,0-0.9-0.1-0.8-0.8c0-2,0-4,0-6c0-0.7,0.2-0.8,0.8-0.8c2,0,3.9,0,5.9,0
			c0.6,0,0.9,0.1,0.8,0.8c0,2,0,4,0,6c0,0.7-0.3,0.8-0.8,0.8C-362.1,564.4-363.1,564.5-364.1,564.5z"/>
		<path class="st0" d="M-118.5,484.1c-1,0-1.9,0-2.9,0c-0.6,0-0.9-0.1-0.9-0.8c0.1-2,0-3.9,0-5.9c0-0.6,0.1-0.9,0.8-0.9c2,0,4,0,6,0
			c0.7,0,0.8,0.3,0.8,0.8c0,2,0,3.9,0,5.9c0,0.7-0.2,0.9-0.9,0.8C-116.6,484.1-117.5,484.1-118.5,484.1z"/>
		<path class="st0" d="M-122.4,480.3c0,1,0,1.9,0,2.9c0,0.6-0.1,0.9-0.8,0.9c-2,0-3.9,0-5.9,0c-0.6,0-0.9-0.1-0.8-0.8c0-2,0-4,0-6
			c0-0.7,0.2-0.8,0.8-0.8c2,0,3.9,0,5.9,0c0.7,0,0.9,0.3,0.8,0.9C-122.5,478.4-122.4,479.4-122.4,480.3L-122.4,480.3z"/>
		<path class="st0" d="M-153,480.3c0-1,0-1.9,0-2.9c0-0.6,0.1-0.9,0.8-0.9c2,0,3.9,0,5.9,0c0.6,0,0.8,0.1,0.8,0.8c0,2,0,4,0,6
			c0,0.7-0.2,0.8-0.8,0.8c-2,0-3.9,0-5.9,0c-0.6,0-0.9-0.1-0.8-0.8C-152.9,482.3-153,481.3-153,480.3z"/>
		<path class="st0" d="M-160.8,480.4c0,1,0,1.9,0,2.9c0,0.6-0.1,0.8-0.8,0.8c-2,0-4,0-6,0c-0.7,0-0.8-0.3-0.8-0.8c0-2,0-3.9,0-5.9
			c0-0.6,0.1-0.9,0.8-0.8c2,0,4,0,6,0c0.7,0,0.8,0.3,0.8,0.9C-160.9,478.4-160.8,479.4-160.8,480.4z"/>
		<path class="st0" d="M-172.2,476.6c1,0,1.9,0,2.9,0c0.6,0,0.8,0.2,0.8,0.8c0,2,0,4,0,6c0,0.6-0.2,0.7-0.8,0.7c-2,0-4.1,0-6.1,0
			c-0.5,0-0.7-0.2-0.7-0.7c0-2,0-4.1,0-6.1c0-0.6,0.2-0.8,0.7-0.7C-174.2,476.6-173.2,476.6-172.2,476.6z"/>
		<path class="st0" d="M-191.6,480.6c-0.1,1,0.5,2.6-0.2,3.3c-0.7,0.6-2.3,0.2-3.5,0.2c-1,0-2.1,0-3.1,0c-0.5,0-0.7-0.2-0.7-0.7
			c0-2,0-4.1,0-6.1c0-0.6,0.1-0.8,0.7-0.8c2,0,4.1,0,6.1,0c0.5,0,0.7,0.2,0.7,0.7C-191.6,478.3-191.6,479.3-191.6,480.6z"/>
		<path class="st0" d="M-199.2,480.5c0,0.9,0,1.8,0,2.8c0,0.6-0.1,0.9-0.8,0.9c-2,0-3.9,0-5.9,0c-0.6,0-0.9-0.1-0.9-0.8c0-2,0-4,0-6
			c0-0.7,0.2-0.8,0.8-0.8c2,0,3.9,0,5.9,0c0.7,0,0.9,0.3,0.8,0.9C-199.3,478.5-199.2,479.5-199.2,480.5L-199.2,480.5z"/>
		<path class="st0" d="M-206.9,480.4c0,0.9,0,1.8,0,2.8c0,0.7-0.1,1.1-1,1c-1.9-0.1-3.8,0-5.6,0c-0.7,0-1-0.1-1-0.9
			c0.1-1.9,0-3.8,0-5.7c0-0.6,0.1-0.9,0.8-0.9c2,0.1,3.9,0,5.9,0c0.7,0,0.9,0.3,0.8,0.9C-206.9,478.4-206.9,479.4-206.9,480.4
			L-206.9,480.4z"/>
		<path class="st0" d="M-260.6,472.8c-0.1,1,0.6,2.7-0.2,3.4c-0.7,0.6-2.3,0.2-3.6,0.2c-1,0-1.9,0-2.9,0c-0.6,0-0.9-0.1-0.8-0.8
			c0-2,0-4,0-6c0-0.7,0.3-0.8,0.8-0.8c2,0,3.9,0,5.9,0c0.7,0,0.9,0.3,0.8,0.9C-260.6,470.7-260.6,471.6-260.6,472.8z"/>
		<path class="st0" d="M-268.2,472.8c0,1,0,1.9,0,2.9c0,0.7-0.2,0.8-0.8,0.8c-2,0-3.9,0-5.9,0c-0.7,0-0.8-0.3-0.8-0.9
			c0-1.9,0-3.8,0-5.8c0-0.7,0.2-0.9,0.9-0.9c1.9,0,3.8,0,5.8,0c0.7,0,0.9,0.1,0.9,0.9C-268.4,470.7-268.2,471.8-268.2,472.8
			L-268.2,472.8z"/>
		<path class="st0" d="M-298.9,472.8c0-0.9,0.1-1.8,0-2.7c-0.1-0.8,0.1-1.2,1.1-1.2c1.9,0.1,3.7,0,5.6,0c0.6,0,0.8,0.1,0.8,0.8
			c0,2,0,4,0,6c0,0.7-0.3,0.8-0.8,0.8c-2,0-3.9,0-5.9,0c-0.7,0-0.9-0.3-0.8-0.9C-298.9,474.6-298.9,473.7-298.9,472.8L-298.9,472.8z
			"/>
		<path class="st0" d="M-302.7,468.9c0.9,0,1.8,0,2.8,0c0.6,0,0.9,0.1,0.9,0.8c0,2,0,3.9,0,5.9c0,0.7-0.2,0.9-0.9,0.8
			c-2,0-3.9,0-5.9,0c-0.5,0-0.8-0.1-0.8-0.7c0-2,0-4.1,0-6.1c0-0.6,0.2-0.8,0.8-0.7C-304.8,468.9-303.8,468.9-302.7,468.9z"/>
		<path class="st0" d="M-310.7,476.4c-1-0.1-2.6,0.5-3.3-0.3c-0.6-0.7-0.2-2.3-0.2-3.5c0-1,0-2.1,0-3.1c0-0.5,0.2-0.7,0.7-0.7
			c2.1,0,4.1,0,6.2,0c0.5,0,0.6,0.2,0.6,0.6c0,2.1,0,4.1,0,6.2c0,0.5-0.2,0.7-0.7,0.7C-308.5,476.4-309.5,476.4-310.7,476.4z"/>
		<path class="st0" d="M-318.1,476.4c-1,0-1.9,0-2.9,0c-0.7,0-1.1-0.1-1-1c0.1-1.9,0.1-3.7,0-5.6c0-0.7,0.1-1,0.9-1
			c1.9,0.1,3.8,0,5.7,0c0.6,0,0.9,0.1,0.9,0.8c0,2,0,3.9,0,5.9c0,0.7-0.3,0.9-0.9,0.8C-316.2,476.4-317.1,476.4-318.1,476.4z"/>
		<path class="st0" d="M-325.7,468.9c0.9,0,1.8,0,2.7,0c0.6,0,0.9,0.1,0.9,0.8c0,2,0,3.9,0,5.9c0,0.6-0.1,0.9-0.8,0.8c-2,0-4,0-6,0
			c-0.7,0-0.8-0.2-0.8-0.8c0-2,0-3.9,0-5.9c0-0.7,0.3-0.9,0.9-0.8C-327.7,469-326.7,468.9-325.7,468.9z"/>
		<path class="st0" d="M-333.7,476.4c-1,0-1.9,0-2.9,0c-0.5,0-0.8-0.1-0.8-0.7c0-2,0-4.1,0-6.1c0-0.6,0.2-0.7,0.8-0.7c2,0,4,0,6,0
			c0.7,0,0.8,0.2,0.8,0.8c0,2,0,3.9,0,5.9c0,0.7-0.3,0.9-0.9,0.8C-331.7,476.4-332.7,476.4-333.7,476.4z"/>
		<path class="st0" d="M-341.2,468.9c1,0,1.9,0,2.9,0c0.6,0,0.9,0.1,0.9,0.8c0,2,0,4,0,6c0,0.6-0.1,0.8-0.7,0.8c-2,0-4.1,0-6.1,0
			c-0.5,0-0.7-0.2-0.7-0.7c0-2,0-4.1,0-6.1c0-0.6,0.3-0.7,0.8-0.7C-343.2,469-342.2,468.9-341.2,468.9z"/>
		<path class="st0" d="M-360.5,472.8c0,1,0,2,0,3c0,0.5-0.2,0.7-0.7,0.7c-2,0-4.1,0-6.1,0c-0.5,0-0.7-0.1-0.7-0.7c0-2.1,0-4.2,0-6.2
			c0-0.5,0.1-0.6,0.6-0.6c2.1,0,4.2,0,6.2,0c0.6,0,0.6,0.3,0.6,0.7C-360.5,470.7-360.5,471.7-360.5,472.8L-360.5,472.8z"/>
		<path class="st0" d="M-107,545.9c-0.1,1,0.5,2.5-0.2,3.2c-0.6,0.6-2.2,0.2-3.3,0.2c-1,0-2.1,0-3.1,0c-0.6,0-0.8-0.2-0.8-0.8
			c0-2,0-3.9,0-5.9c0-0.7,0.3-0.9,0.9-0.8c1.9,0,3.8,0,5.7,0c0.7,0,0.9,0.2,0.8,0.9C-107.1,543.6-107,544.6-107,545.9z"/>
		<path class="st0" d="M-118.7,549.3c-1-0.1-2.5,0.5-3.2-0.2c-0.6-0.7-0.2-2.2-0.2-3.4c0-1,0-2.1,0-3.1c0-0.6,0.2-0.8,0.8-0.8
			c2,0,3.9,0,5.9,0c0.6,0,0.8,0.2,0.8,0.8c0,2,0,3.9,0,5.9c0,0.7-0.2,0.9-0.9,0.9C-116.5,549.2-117.5,549.3-118.7,549.3z"/>
		<path class="st0" d="M-141.5,549.3c-1,0-1.9,0-2.9,0c-0.6,0-0.8-0.1-0.8-0.8c0-2,0-4,0-6c0-0.6,0.2-0.8,0.7-0.8c2,0,4,0,6,0
			c0.6,0,0.8,0.1,0.8,0.7c0,2,0,4.1,0,6.1c0,0.5-0.2,0.7-0.7,0.7C-139.4,549.3-140.5,549.3-141.5,549.3z"/>
		<path class="st0" d="M-337.2,545.4c0,1.2,0.5,2.8-0.1,3.5c-0.7,0.8-2.3,0.2-3.5,0.2s-2.9,0.5-3.5-0.2s-0.2-2.3-0.2-3.5
			c0-1,0-2.1,0-3.1c0-0.5,0.2-0.7,0.7-0.7c2,0,4.1,0,6.1,0c0.6,0,0.7,0.3,0.7,0.8C-337.2,543.4-337.2,544.4-337.2,545.4
			L-337.2,545.4z"/>
		<path class="st0" d="M-360.2,545.4c0,1,0,2,0,3c0,0.5-0.1,0.7-0.7,0.7c-2,0-4.1,0-6.1,0c-0.6,0-0.7-0.2-0.7-0.8c0-2,0-4,0-6
			c0-0.6,0.1-0.8,0.7-0.8c2,0,4,0,6,0c0.7,0,0.8,0.3,0.8,0.8C-360.4,543.4-360.2,544.4-360.2,545.4L-360.2,545.4z"/>
		<path class="st0" d="M-114.6,465.1c0-1,0-2.1,0-3.1c0-0.6,0.2-0.8,0.8-0.7c2,0,4,0,6,0c0.7,0,0.8,0.3,0.8,0.9c0,2,0,3.9,0,5.9
			c0,0.6-0.2,0.8-0.8,0.8c-2,0-3.9,0-5.9,0c-0.7,0-0.9-0.3-0.8-0.9C-114.5,466.9-114.6,466-114.6,465.1L-114.6,465.1z"/>
		<path class="st0" d="M-122.2,464.9c0-1,0-1.9,0-2.9c0-0.7,0.2-0.8,0.8-0.8c2,0,3.9,0,5.9,0c0.6,0,0.8,0.2,0.8,0.8c0,2,0,3.9,0,5.9
			c0,0.6-0.1,0.9-0.8,0.9c-2,0-4,0-6,0c-0.7,0-0.8-0.3-0.8-0.9C-122.2,466.9-122.3,465.9-122.2,464.9
			C-122.3,464.9-122.3,464.9-122.2,464.9z"/>
		<path class="st0" d="M-122.4,465.1c0,1,0,2,0,3c0,0.5-0.2,0.7-0.7,0.7c-2,0-4.1,0-6.1,0c-0.6,0-0.7-0.2-0.7-0.8c0-2,0-4,0-6
			c0-0.6,0.2-0.8,0.7-0.7c2,0,4,0,6,0c0.7,0,0.8,0.3,0.8,0.8C-122.5,463.1-122.4,464.1-122.4,465.1L-122.4,465.1z"/>
		<path class="st0" d="M-329.6,553.2c-0.1,1,0.6,2.7-0.2,3.4c-0.7,0.6-2.3,0.2-3.6,0.2c-1,0-1.9,0-2.9,0c-0.6,0-0.8-0.1-0.8-0.8
			c0-2,0-4,0-6c0-0.7,0.3-0.8,0.8-0.8c2,0,3.9,0,5.9,0c0.6,0,0.9,0.1,0.8,0.8C-329.6,551-329.6,552-329.6,553.2z"/>
		<path class="st0" d="M-341.1,556.8c-1,0-2,0-3,0c-0.5,0-0.7-0.2-0.7-0.7c0-2,0-4.1,0-6.1c0-0.6,0.2-0.7,0.8-0.7c2,0,4,0,6,0
			c0.6,0,0.8,0.2,0.7,0.8c0,2,0,4,0,6c0,0.7-0.3,0.8-0.8,0.8C-339.1,556.7-340.1,556.8-341.1,556.8z"/>
		<path class="st0" d="M-364,549.3c1,0,2,0,3,0c0.5,0,0.7,0.1,0.7,0.7c0,2.1,0,4.1,0,6.2c0,0.6-0.3,0.6-0.7,0.6c-2,0-4.1,0-6.1,0
			c-0.6,0-0.7-0.3-0.7-0.8c0-2,0-4,0-6c0-0.7,0.3-0.8,0.8-0.8C-366,549.3-365,549.3-364,549.3z"/>
		<path class="st0" d="M-110.8,468.9c1,0,1.9,0,2.9,0c0.6,0,0.8,0.1,0.8,0.8c0,2,0,4,0,6c0,0.6-0.1,0.8-0.7,0.8c-2,0-4.1,0-6.1,0
			c-0.6,0-0.7-0.2-0.7-0.8c0-2,0-4,0-6c0-0.7,0.3-0.8,0.9-0.8C-112.7,468.9-111.7,468.9-110.8,468.9z"/>
		<path class="st0" d="M-114.7,472.7c0,1,0,1.9,0,2.9c0,0.6-0.1,0.8-0.8,0.8c-2,0-4,0-6,0c-0.7,0-0.8-0.3-0.8-0.8c0-2,0-3.9,0-5.9
			c0-0.6,0.1-0.8,0.8-0.8c2,0,4,0,6,0c0.7,0,0.8,0.3,0.8,0.9C-114.8,470.7-114.7,471.7-114.7,472.7L-114.7,472.7z"/>
		<path class="st0" d="M-129.9,472.6c0-1,0-2,0-3c0-0.5,0.2-0.7,0.7-0.7c2,0,4.1,0,6.1,0c0.5,0,0.7,0.1,0.7,0.6c0,2.1,0,4.1,0,6.2
			c0,0.5-0.2,0.7-0.7,0.7c-2,0-4.1,0-6.1,0c-0.6,0-0.7-0.2-0.7-0.8C-129.9,474.6-129.9,473.6-129.9,472.6L-129.9,472.6z"/>
		<path class="st0" d="M-153,472.6c0-0.9,0-1.8,0-2.8c0-0.6,0.1-0.9,0.8-0.9c2,0.1,3.9,0,5.9,0c0.7,0,0.8,0.2,0.8,0.8
			c0,2,0,3.9,0,5.9c0,0.7-0.3,0.9-0.9,0.8c-1.9,0-3.8,0-5.8,0c-0.7,0-0.9-0.2-0.9-0.9C-152.9,474.6-153,473.6-153,472.6L-153,472.6z
			"/>
		<path class="st0" d="M-160.8,472.8c-0.1,1,0.6,2.7-0.2,3.4c-0.7,0.6-2.3,0.2-3.6,0.2c-1,0-2,0-3,0c-0.5,0-0.7-0.1-0.7-0.7
			c0-2.1,0-4.1,0-6.2c0-0.6,0.3-0.6,0.7-0.6c2,0,4.1,0,6.1,0c0.5,0,0.7,0.2,0.7,0.7C-160.9,470.6-160.8,471.6-160.8,472.8z"/>
		<path class="st0" d="M-168.5,472.7c0,1,0,1.9,0,2.9c0,0.6-0.1,0.9-0.8,0.8c-2,0-4,0-6,0c-0.7,0-0.8-0.2-0.8-0.8c0-2,0-3.9,0-5.9
			c0-0.6,0.1-0.9,0.8-0.9c2,0,4,0,6,0c0.7,0,0.8,0.3,0.8,0.8C-168.5,470.7-168.5,471.7-168.5,472.7L-168.5,472.7z"/>
		<path class="st0" d="M-191.6,472.8c0,1,0,1.9,0,2.9c0,0.7-0.2,0.8-0.8,0.8c-2,0-3.9,0-5.9,0c-0.6,0-0.8-0.1-0.8-0.8c0-2,0-4,0-6
			c0-0.6,0.2-0.7,0.8-0.7c2,0,4,0,6,0c0.7,0,0.8,0.3,0.8,0.9C-191.6,470.8-191.6,471.8-191.6,472.8L-191.6,472.8z"/>
		<path class="st0" d="M-203,476.4c-1,0-1.9,0-2.9,0c-0.6,0-0.9-0.1-0.8-0.8c0-2,0-4,0-6c0-0.7,0.3-0.8,0.8-0.8c2,0,3.9,0,5.9,0
			c0.6,0,0.9,0.1,0.8,0.8c0,2,0,4,0,6c0,0.7-0.3,0.8-0.8,0.8C-201.1,476.4-202,476.4-203,476.4z"/>
		<path class="st0" d="M-210.8,476.4c-0.9,0-1.8,0-2.8,0c-0.6,0-0.9-0.1-0.9-0.8c0.1-2,0-3.9,0-5.9c0-0.6,0.1-0.8,0.8-0.8
			c2,0,3.9,0,5.9,0c0.6,0,0.9,0.1,0.8,0.8c0,2,0,4,0,6c0,0.6-0.2,0.8-0.7,0.8C-208.7,476.4-209.7,476.4-210.8,476.4z"/>
		<path class="st0" d="M-237.5,472.8c0-0.9,0.1-1.8,0-2.7c-0.1-0.8,0.1-1.2,1.1-1.2c1.9,0.1,3.7,0,5.6,0c0.6,0,0.8,0.1,0.8,0.8
			c0,2,0,4,0,6c0,0.7-0.3,0.8-0.8,0.8c-2,0-3.9,0-5.9,0c-0.7,0-0.9-0.3-0.8-0.9C-237.4,474.6-237.5,473.7-237.5,472.8L-237.5,472.8z
			"/>
		<path class="st0" d="M-241.3,468.9c1,0,2,0,3,0c0.5,0,0.7,0.2,0.7,0.7c0,2,0,4.1,0,6.1c0,0.6-0.2,0.7-0.8,0.7c-2,0-4.1,0-6.1,0
			c-0.5,0-0.7-0.2-0.7-0.7c0-2,0-4.1,0-6.1c0-0.6,0.2-0.8,0.8-0.7C-243.4,469-242.3,468.9-241.3,468.9z"/>
		<path class="st0" d="M-245.3,473c-0.1,0.9,0.5,2.5-0.2,3.2c-0.7,0.6-2.2,0.2-3.4,0.2c-1.1,0-2.2,0-3.2,0c-0.5,0-0.7-0.2-0.7-0.7
			c0-2,0-4.1,0-6.1c0-0.5,0.1-0.7,0.7-0.7c2,0,4.1,0,6.1,0c0.6,0,0.8,0.2,0.7,0.7C-245.3,470.7-245.3,471.7-245.3,473z"/>
		<path class="st0" d="M-257,476.4c-1-0.1-2.7,0.5-3.3-0.3c-0.6-0.7-0.2-2.3-0.2-3.5s-0.4-2.8,0.2-3.5c0.7-0.8,2.3-0.2,3.5-0.2
			c1,0,1.9,0,2.9,0c0.6,0,0.9,0.1,0.9,0.8c0,2,0,3.9,0,5.9c0,0.6-0.2,0.8-0.8,0.8C-254.8,476.4-255.8,476.4-257,476.4z"/>
		<path class="st0" d="M-218.3,499.4c-1,0-2,0-3,0c-0.7,0-0.8-0.2-0.8-0.8c0-2,0-3.9,0-5.9c0-0.6,0.1-0.9,0.8-0.8c2,0,4,0,6,0
			c0.7,0,0.8,0.2,0.8,0.8c0,2,0,3.9,0,5.9c0,0.7-0.3,0.9-0.9,0.8C-216.4,499.4-217.4,499.4-218.3,499.4z"/>
		<path class="st0" d="M-226.3,499.4c-1-0.1-2.7,0.5-3.4-0.2c-0.6-0.7-0.2-2.3-0.2-3.5c0-1,0-2.1,0-3.1c0-0.5,0.2-0.7,0.7-0.7
			c2,0,4.1,0,6.1,0c0.6,0,0.8,0.2,0.8,0.7c0,2,0,4.1,0,6.1c0,0.5-0.2,0.7-0.7,0.7C-224,499.4-225,499.4-226.3,499.4z"/>
		<path class="st0" d="M-237.6,495.9c-0.1,1,0.5,2.6-0.2,3.3c-0.7,0.6-2.3,0.2-3.5,0.2c-1,0-2,0-3,0c-0.6,0-0.9-0.1-0.8-0.8
			c0-2,0-4,0-6c0-0.6,0.1-0.8,0.7-0.8c2,0,4.1,0,6.1,0c0.6,0,0.7,0.3,0.7,0.8C-237.6,493.7-237.6,494.7-237.6,495.9z"/>
		<path class="st0" d="M-249.2,499.4c-1,0-1.9,0-2.9,0c-0.7,0-0.8-0.2-0.8-0.8c0-2,0-3.9,0-5.9c0-0.6,0.1-0.9,0.8-0.8c2,0,4,0,6,0
			c0.7,0,0.8,0.2,0.8,0.8c0,2,0,3.9,0,5.9c0,0.7-0.3,0.9-0.9,0.8C-247.2,499.4-248.2,499.4-249.2,499.4z"/>
		<path class="st0" d="M-256.6,491.9c1,0,1.9,0,2.9,0c0.6,0,0.8,0.2,0.8,0.8c0,2,0,3.9,0,5.9c0,0.6-0.1,0.9-0.8,0.8
			c-2,0-4.1,0-6.1,0c-0.5,0-0.7-0.2-0.7-0.7c0-2,0-4.1,0-6.1c0-0.6,0.2-0.7,0.8-0.7C-258.6,492-257.6,491.9-256.6,491.9z"/>
		<path class="st0" d="M-264.5,499.4c-1,0-1.9,0-2.9,0c-0.7,0-0.8-0.2-0.8-0.8c0-2,0-3.9,0-5.9c0-0.6,0.1-0.9,0.8-0.8c2,0,4,0,6,0
			c0.7,0,0.8,0.2,0.8,0.8c0,2,0,3.9,0,5.9c0,0.7-0.3,0.8-0.9,0.8C-262.5,499.4-263.5,499.4-264.5,499.4z"/>
		<path class="st0" d="M-268.2,496c-0.1,1,0.5,2.5-0.2,3.2c-0.7,0.6-2.2,0.2-3.4,0.2c-1,0-2.1,0-3.1,0c-0.6,0-0.9-0.1-0.8-0.8
			c0-2,0-4,0-6c0-0.6,0.1-0.8,0.7-0.8c2,0,4.1,0,6.1,0c0.6,0,0.7,0.3,0.7,0.8C-268.4,493.7-268.2,494.8-268.2,496z"/>
		<path class="st0" d="M-279.6,491.9c1,0,1.9,0,2.9,0c0.6,0,0.9,0.1,0.8,0.8c0,2,0,4,0,6c0,0.6-0.1,0.8-0.7,0.8c-2,0-4.1,0-6.1,0
			c-0.6,0-0.7-0.2-0.7-0.8c0-2,0-4,0-6c0-0.7,0.3-0.8,0.9-0.8C-281.6,492-280.6,491.9-279.6,491.9z"/>
		<path class="st0" d="M-291.1,495.6c0-1,0-1.9,0-2.9c0-0.6,0.2-0.8,0.8-0.8c2,0,4,0,6,0c0.6,0,0.7,0.2,0.7,0.8c0,2,0,4,0,6
			c0,0.5-0.1,0.8-0.7,0.8c-2,0-4.1,0-6.1,0c-0.6,0-0.8-0.2-0.7-0.7C-291.1,497.7-291.1,496.6-291.1,495.6z"/>
		<path class="st0" d="M-329.8,495.9c-0.1,1,0.5,2.6-0.2,3.3c-0.7,0.6-2.3,0.2-3.5,0.2c-1,0-2,0-3,0c-0.6,0-0.8-0.1-0.8-0.8
			c0-2,0-4,0-6c0-0.6,0.1-0.8,0.7-0.8c2,0,4.1,0,6.1,0c0.6,0,0.7,0.3,0.7,0.8C-329.8,493.7-329.8,494.7-329.8,495.9z"/>
		<path class="st0" d="M-337.5,496c-0.1,1,0.5,2.5-0.2,3.2c-0.7,0.6-2.2,0.2-3.3,0.2s-2.2,0-3.2,0c-0.6,0-0.7-0.2-0.7-0.8
			c0-2,0-4,0-6c0-0.7,0.2-0.8,0.8-0.8c2,0,3.9,0,5.9,0c0.7,0,0.9,0.2,0.9,0.9C-337.5,493.8-337.5,494.8-337.5,496z"/>
		<path class="st0" d="M-348.8,491.9c1,0,1.9,0,2.9,0c0.5,0,0.8,0.1,0.8,0.7c0,2,0,4.1,0,6.1c0,0.5-0.1,0.7-0.6,0.7
			c-2.1,0-4.2,0-6.2,0c-0.5,0-0.7-0.2-0.7-0.7c0-2,0-4.1,0-6.1c0-0.6,0.2-0.7,0.8-0.7C-350.9,492-349.8,491.9-348.8,491.9z"/>
		<path class="st0" d="M-352.8,495.8c0,0.8-0.1,1.7,0,2.5s-0.1,1.2-1.1,1.2c-1.9-0.1-3.8,0-5.6,0c-0.6,0-0.9-0.1-0.9-0.8
			c0-2,0-4,0-6c0-0.7,0.2-0.8,0.8-0.8c2,0,3.9,0,5.9,0c0.7,0,0.9,0.2,0.8,0.9C-352.8,493.8-352.8,494.8-352.8,495.8z"/>
		<path class="st0" d="M-107,568.6c0,1,0,1.9,0,2.9c0,0.6-0.1,0.9-0.8,0.9c-2-0.1-3.9,0-5.9,0c-0.6,0-0.9-0.1-0.8-0.8c0-2,0-4,0-6
			c0-0.7,0.2-0.8,0.8-0.8c2,0,3.9,0,5.9,0c0.7,0,0.9,0.3,0.8,0.9C-107,566.6-107,567.6-107,568.6z"/>
		<path class="st0" d="M-122.2,568.5c0-1,0-2,0-3c0-0.5,0.2-0.7,0.7-0.7c2,0,4.1,0,6.1,0c0.5,0,0.8,0.1,0.8,0.7c0,2,0,4.1,0,6.1
			c0,0.6-0.2,0.7-0.8,0.7c-2,0-4.1,0-6.1,0c-0.6,0-0.7-0.3-0.7-0.8C-122.2,570.5-122.2,569.5-122.2,568.5z"/>
		<path class="st0" d="M-129.9,568.6c0-1,0-2,0-3c0-0.7,0.2-0.8,0.8-0.8c2,0,4,0,6,0c0.6,0,0.8,0.2,0.8,0.7c0,2,0,4.1,0,6.1
			c0,0.6-0.2,0.7-0.8,0.7c-2,0-4,0-6,0c-0.6,0-0.9-0.1-0.8-0.8C-129.8,570.6-129.9,569.6-129.9,568.6z"/>
		<path class="st0" d="M-122.2,576.2c0-1,0-1.9,0-2.9c0-0.6,0.1-0.9,0.8-0.9c2,0,3.9,0,5.9,0c0.6,0,0.9,0.1,0.8,0.8c0,2,0,4,0,6
			c0,0.5-0.1,0.8-0.7,0.8c-2,0-4.1,0-6.1,0c-0.6,0-0.8-0.2-0.7-0.8C-122.2,578.2-122.2,577.2-122.2,576.2z"/>
		<path class="st0" d="M-126.1,580c-1,0-2,0-3,0c-0.7,0-0.8-0.2-0.8-0.8c0-2,0-3.9,0-5.9c0-0.6,0.1-0.8,0.8-0.8c2,0,4,0,6,0
			c0.7,0,0.8,0.2,0.8,0.8c0,2,0,3.9,0,5.9c0,0.6-0.1,0.9-0.8,0.8C-124.1,579.9-125.1,580-126.1,580z"/>
		<path class="st0" d="M-133.8,580c-1,0-1.9,0-2.9,0c-0.6,0-0.9-0.1-0.9-0.8c0.1-2,0-3.9,0-5.9c0-0.6,0.1-0.8,0.8-0.8c2,0,4,0,6,0
			c0.7,0,0.8,0.2,0.8,0.8c0,2,0,3.9,0,5.9c0,0.6-0.1,0.9-0.8,0.8C-131.8,579.9-132.8,580-133.8,580z"/>
		<path class="st0" d="M-137.8,576.3c0,1.2,0.5,2.8-0.1,3.5c-0.7,0.8-2.3,0.2-3.5,0.2c-1,0-2.1,0-3.1,0c-0.5,0-0.7-0.1-0.7-0.7
			c0-2.1,0-4.2,0-6.2c0-0.5,0.2-0.6,0.6-0.6c2.1,0,4.2,0,6.2,0c0.5,0,0.7,0.2,0.7,0.7C-137.7,574.2-137.7,575.2-137.8,576.3
			C-137.7,576.3-137.7,576.3-137.8,576.3z"/>
		<path class="st0" d="M-325.8,579.8c-1-0.1-2.7,0.5-3.4-0.2c-0.6-0.7-0.2-2.3-0.2-3.6c0-1,0-2,0-3c0-0.5,0.1-0.7,0.7-0.7
			c2,0,6,0.3,8,0.3c0.6,0,0.8,0.1,0.8,0.7c0,2,0,4.1,0,6.1c0,0.5-0.1,0.7-0.7,0.7C-321.7,580.1-324.6,579.8-325.8,579.8z"/>
		<path class="st0" d="M-329.6,576.1c0,1,0,1.9,0,2.9c0,0.6-0.2,0.8-0.8,0.8c-2,0-4,0-6,0c-0.6,0-0.8-0.1-0.8-0.7c0-2,0-4.1,0-6.1
			c0-0.5,0.2-0.7,0.7-0.7c2,0,4.1,0,6.1,0c0.6,0,0.8,0.2,0.8,0.7C-329.6,574.1-329.6,575.1-329.6,576.1z"/>
		<path class="st0" d="M-344.8,575.9c0-0.9,0-1.8,0-2.8c0-0.6,0.1-0.9,0.8-0.9c2,0,3.9,0,5.9,0c0.7,0,0.9,0.2,0.9,0.9
			c0,1.9,0,3.8,0,5.8c0,0.6-0.1,0.9-0.8,0.9c-2,0-4,0-6,0c-0.6,0-0.8-0.2-0.7-0.8C-344.8,578-344.8,577-344.8,575.9z"/>
		<path class="st0" d="M-348.6,572.3c1,0,1.9,0,2.9,0c0.5,0,0.8,0.1,0.8,0.7c0,2,0,4.1,0,6.1c0,0.6-0.2,0.7-0.8,0.7c-2,0-4,0-6,0
			c-0.7,0-0.8-0.2-0.8-0.8c0-2,0-3.9,0-5.9c0-0.7,0.2-0.9,0.9-0.8C-350.6,572.3-349.6,572.3-348.6,572.3z"/>
		<path class="st0" d="M-118.5,499.4c-0.9,0-1.8-0.1-2.6,0c-0.8,0.1-1.2-0.1-1.1-1.1c0.1-1.8,0.1-3.7,0-5.5c0-0.7,0.1-1,0.9-1
			c1.9,0.1,3.8,0,5.8,0c0.6,0,0.9,0.1,0.9,0.8c0,2,0,3.9,0,5.9c0,0.6-0.1,0.9-0.8,0.8C-116.5,499.4-117.5,499.4-118.5,499.4z"/>
		<path class="st0" d="M-126.1,491.9c1,0,1.9,0,2.9,0c0.6,0,0.9,0.1,0.8,0.8c0,2,0,4,0,6c0,0.6-0.1,0.8-0.7,0.8c-2,0-4.1,0-6.1,0
			c-0.6,0-0.7-0.2-0.7-0.8c0-2,0-4,0-6c0-0.7,0.3-0.8,0.9-0.8C-128.1,492-127.1,491.9-126.1,491.9z"/>
		<path class="st0" d="M-130.1,496c-0.1,1,0.5,2.5-0.2,3.2c-0.7,0.6-2.2,0.2-3.4,0.2c-1,0-2.1,0-3.1,0c-0.6,0-0.9-0.1-0.8-0.8
			c0-2,0-4,0-6c0-0.6,0.1-0.8,0.7-0.8c2,0,4.1,0,6.1,0c0.6,0,0.7,0.3,0.7,0.8C-130.1,493.7-130.1,494.8-130.1,496z"/>
		<path class="st0" d="M-145.3,495.7c0-1,0-1.9,0-2.9c0-0.6,0.1-0.9,0.8-0.9c2,0.1,3.9,0,5.9,0c0.6,0,0.9,0.1,0.9,0.8c0,2,0,4,0,6
			c0,0.5-0.1,0.8-0.7,0.8c-2,0-4.1,0-6.1,0c-0.6,0-0.7-0.2-0.7-0.8C-145.3,497.7-145.3,496.7-145.3,495.7z"/>
		<path class="st0" d="M-160.8,495.8c0,1,0,1.9,0,2.9c0,0.6-0.1,0.8-0.8,0.8c-2,0-4,0-6,0c-0.7,0-0.8-0.3-0.8-0.8c0-2,0-3.9,0-5.9
			c0-0.6,0.1-0.8,0.8-0.8c2,0,4,0,6,0c0.7,0,0.8,0.3,0.8,0.8C-160.9,493.8-160.8,494.8-160.8,495.8z"/>
		<path class="st0" d="M-172.3,491.9c0.9,0,1.8,0,2.8,0c0.7,0,1.1,0.1,1,1c-0.1,1.9,0,3.8,0,5.8c0,0.6-0.1,0.8-0.8,0.8c-2,0-4,0-6,0
			c-0.7,0-0.8-0.2-0.8-0.8c0-2,0-3.9,0-5.9c0-0.7,0.3-0.9,0.9-0.8C-174.2,492-173.2,491.9-172.3,491.9z"/>
		<path class="st0" d="M-176.2,495.8c0,1,0,2,0,3c0,0.5-0.2,0.7-0.7,0.7c-2,0-4.1,0-6.1,0c-0.6,0-0.8-0.1-0.8-0.7c0-2,0-4.1,0-6.1
			c0-0.5,0.2-0.7,0.7-0.7c2,0,4.1,0,6.1,0c0.6,0,0.8,0.1,0.8,0.7C-176.2,493.7-176.2,494.7-176.2,495.8z"/>
		<path class="st0" d="M-187.5,491.9c0.9,0,1.8,0,2.8,0c0.6,0,0.9,0.1,0.9,0.8c0,2,0,3.9,0,5.9c0,0.6-0.1,0.9-0.8,0.8c-2,0-4,0-6,0
			c-0.7,0-0.8-0.2-0.8-0.8c0-2,0-3.9,0-5.9c0-0.7,0.2-0.9,0.9-0.8C-189.5,492-188.5,491.9-187.5,491.9z"/>
		<path class="st0" d="M-203,499.4c-0.9,0-1.8,0-2.8,0c-0.7,0-1.1-0.1-1-0.9c0.1-1.9,0.1-3.8,0-5.6c0-0.7,0.1-1,0.9-1
			c1.9,0.1,3.8,0,5.8,0c0.6,0,0.9,0.1,0.9,0.8c0,2,0,3.9,0,5.9c0,0.7-0.3,0.9-0.9,0.8C-201.1,499.4-202,499.4-203,499.4z"/>
		<path class="st0" d="M-210.9,499.4c-1-0.1-2.7,0.5-3.4-0.3c-0.6-0.7-0.2-2.3-0.2-3.5c0-1,0-2,0-3c0-0.5,0.1-0.8,0.7-0.8
			c2,0,4.1,0,6.1,0c0.6,0,0.7,0.2,0.7,0.8c0,2,0,4,0,6c0,0.7-0.2,0.8-0.8,0.8C-208.7,499.4-209.7,499.4-210.9,499.4z"/>
		<path class="st0" d="M-203,491.8c-1,0-2,0-3,0c-0.6,0-0.8-0.2-0.8-0.8c0-2,0-4,0-6c0-0.5,0.1-0.8,0.7-0.8c2,0,4.1,0,6.1,0
			c0.6,0,0.7,0.2,0.7,0.8c0,2,0,4,0,6c0,0.6-0.1,0.9-0.8,0.8C-201,491.8-202,491.8-203,491.8z"/>
		<path class="st0" d="M-210.7,491.8c-1,0-2,0-3,0c-0.6,0-0.8-0.2-0.8-0.8c0-2,0-3.9,0-5.9c0-0.7,0.1-0.9,0.8-0.9c2,0,3.9,0,5.9,0
			c0.7,0,0.9,0.2,0.9,0.9c0,2,0,3.9,0,5.9c0,0.6-0.1,0.9-0.8,0.8C-208.7,491.8-209.7,491.8-210.7,491.8z"/>
		<path class="st0" d="M-218.5,491.8c-1-0.1-2.7,0.5-3.4-0.2c-0.6-0.7-0.2-2.3-0.2-3.6c0-1,0-1.9,0-2.9c0-0.6,0.1-0.8,0.8-0.8
			c2,0,4,0,6,0c0.7,0,0.8,0.3,0.8,0.8c0,2,0,3.9,0,5.9c0,0.6-0.1,0.9-0.8,0.8C-216.3,491.8-217.3,491.8-218.5,491.8z"/>
		<path class="st0" d="M-225.9,484.3c1,0,1.9,0,2.9,0c0.7,0,0.8,0.2,0.8,0.8c0,2,0,3.9,0,5.9c0,0.6-0.1,0.9-0.8,0.8c-2,0-4,0-6,0
			c-0.5,0-0.8-0.1-0.8-0.7c0-2,0-4.1,0-6.1c0-0.6,0.2-0.7,0.8-0.7C-228,484.3-227,484.3-225.9,484.3z"/>
		<path class="st0" d="M-229.9,488.3c-0.1,1,0.5,2.6-0.2,3.3c-0.7,0.6-2.3,0.2-3.5,0.2c-1,0-2.1,0-3.1,0c-0.6,0-0.7-0.2-0.7-0.8
			c0-2,0-4,0-6c0-0.6,0.1-0.8,0.8-0.8c2,0,4,0,6,0c0.7,0,0.8,0.2,0.8,0.8C-230,486.1-229.9,487.1-229.9,488.3z"/>
		<path class="st0" d="M-245.1,487.9c0-1,0-1.9,0-2.9c0-0.7,0.2-0.8,0.8-0.8c2,0,4,0,6,0c0.6,0,0.8,0.1,0.8,0.7c0,2,0,4.1,0,6.1
			c0,0.6-0.2,0.7-0.8,0.7c-2,0-4,0-6,0c-0.6,0-0.9-0.1-0.8-0.8C-245.1,490-245.2,488.9-245.1,487.9z"/>
		<path class="st0" d="M-245.3,488c0,0.9,0,1.8,0,2.8c0,0.7-0.1,1.1-1,1c-1.9-0.1-3.8-0.1-5.8,0c-0.7,0-0.9-0.2-0.9-0.9
			c0-1.9,0-3.8,0-5.8c0-0.6,0.1-0.9,0.8-0.9c2,0.1,3.9,0,5.9,0c0.7,0,0.9,0.2,0.9,0.9C-245.3,486.1-245.3,487.1-245.3,488z"/>
		<path class="st0" d="M-256.6,484.3c1,0,2,0,3,0c0.5,0,0.7,0.2,0.7,0.7c0,2,0,4.1,0,6.1c0,0.6-0.2,0.7-0.8,0.7c-2,0-4.1,0-6.1,0
			c-0.5,0-0.7-0.2-0.7-0.7c0-2,0-4.1,0-6.1c0-0.6,0.2-0.8,0.8-0.7C-258.6,484.3-257.6,484.3-256.6,484.3z"/>
		<path class="st0" d="M-264.2,484.3c1,0,2,0,3,0c0.5,0,0.7,0.2,0.7,0.7c0,2,0,4.1,0,6.1c0,0.6-0.2,0.7-0.8,0.7c-2,0-4.1,0-6.1,0
			c-0.5,0-0.7-0.2-0.7-0.7c0-2,0-4.1,0-6.1c0-0.6,0.2-0.8,0.8-0.7C-266.4,484.3-265.4,484.3-264.2,484.3z"/>
		<path class="st0" d="M-272.2,491.8c-1-0.1-2.7,0.5-3.3-0.3c-0.6-0.7-0.2-2.3-0.2-3.5c0-1,0-2.1,0-3.1c0-0.5,0.2-0.7,0.7-0.7
			c2,0,4.1,0,6.1,0c0.6,0,0.8,0.1,0.8,0.7c0,2,0,4.1,0,6.1c0,0.5-0.2,0.7-0.7,0.7C-270,491.8-271.1,491.8-272.2,491.8z"/>
		<path class="st0" d="M-279.6,484.3c1,0,2,0,3,0c0.5,0,0.7,0.2,0.7,0.7c0,2.1,0,4.2,0,6.2c0,0.5-0.2,0.6-0.6,0.6
			c-2.1,0-4.2,0-6.2,0c-0.5,0-0.7-0.1-0.7-0.7c0-2,0-4.1,0-6.1c0-0.6,0.2-0.8,0.7-0.7C-281.8,484.3-280.6,484.3-279.6,484.3z"/>
		<path class="st0" d="M-287.4,484.3c1,0,2,0,3,0c0.5,0,0.7,0.2,0.7,0.7c0,2.1,0,4.2,0,6.2c0,0.5-0.2,0.6-0.6,0.6
			c-2.1,0-4.2,0-6.2,0c-0.5,0-0.7-0.1-0.7-0.7c0-2,0-4.1,0-6.1c0-0.6,0.2-0.8,0.7-0.7C-289.5,484.3-288.4,484.3-287.4,484.3z"/>
		<path class="st0" d="M-291.4,488.2c-0.1,1,0.6,2.7-0.3,3.4c-0.7,0.6-2.4,0.2-3.6,0.2c-1,0-1.9,0-2.9,0c-0.6,0-0.8-0.1-0.8-0.8
			c0-2,0-3.9,0-5.9c0-0.7,0.2-0.9,0.9-0.9c2,0,3.9,0,5.9,0c0.6,0,0.9,0.2,0.8,0.8C-291.4,486-291.4,487-291.4,488.2z"/>
		<path class="st0" d="M-337.2,487.9c0.1-1.1-0.5-2.7,0.2-3.5c0.7-0.6,2.3-0.2,3.6-0.2c1,0,1.9,0,2.9,0c0.6,0,0.8,0.1,0.8,0.8
			c0,2,0,4,0,6c0,0.7-0.3,0.8-0.8,0.8c-2,0-3.9,0-5.9,0c-0.7,0-0.9-0.3-0.8-0.9C-337.2,490-337.2,489.1-337.2,487.9z"/>
		<path class="st0" d="M-341.2,491.8c-1,0-2,0-3,0c-0.6,0-0.8-0.2-0.8-0.8c0-2,0-4,0-6c0-0.5,0.1-0.8,0.7-0.8c2,0,4.1,0,6.1,0
			c0.6,0,0.7,0.2,0.7,0.8c0,2,0,4,0,6c0,0.6-0.1,0.9-0.8,0.8C-339.2,491.8-340.2,491.8-341.2,491.8z"/>
		<path class="st0" d="M-348.8,484.3c0.9,0,1.8,0,2.8,0c0.6,0,0.9,0.1,0.9,0.8c0,2,0,3.9,0,5.9c0,0.6-0.1,0.9-0.8,0.8c-2,0-4,0-6,0
			c-0.7,0-0.8-0.2-0.8-0.8c0-2,0-3.9,0-5.9c0-0.7,0.3-0.9,0.9-0.8C-350.8,484.3-349.8,484.3-348.8,484.3z"/>
		<path class="st0" d="M-360.4,487.9c0.1-1.1-0.5-2.7,0.3-3.5c0.7-0.6,2.4-0.2,3.6-0.2c1,0,1.9,0,2.9,0c0.6,0,0.8,0.1,0.8,0.8
			c0,2,0,4,0,6c0,0.6-0.1,0.8-0.7,0.8c-2,0-4.1,0-6.1,0c-0.6,0-0.7-0.3-0.7-0.8C-360.2,490.1-360.4,489.1-360.4,487.9z"/>
		<path class="st0" d="M-130,568.7c0,1,0,2,0,3c0,0.5-0.2,0.7-0.7,0.7c-2,0-4.1,0-6.1,0c-0.6,0-0.8-0.1-0.8-0.7c0-2,0-4.1,0-6.1
			c0-0.5,0.2-0.7,0.7-0.7c2,0,4.1,0,6.1,0c0.6,0,0.8,0.1,0.8,0.7C-130,566.6-130,567.6-130,568.7z"/>
		<path class="st0" d="M-145.2,568.4c0.1-1-0.5-2.7,0.3-3.4c0.7-0.6,2.3-0.2,3.5-0.2c1,0,2,0,3,0c0.6,0,0.8,0.1,0.8,0.8c0,2,0,4,0,6
			c0,0.6-0.1,0.8-0.7,0.8c-2,0-4.1,0-6.1,0c-0.6,0-0.7-0.3-0.7-0.8C-145.2,570.6-145.2,569.6-145.2,568.4z"/>
		<path class="st0" d="M-149,564.8c0.9,0,1.8,0,2.8,0c0.6,0,0.9,0.1,0.9,0.8c0,2,0,3.9,0,5.9c0,0.6-0.1,0.9-0.8,0.8c-2,0-4,0-6,0
			c-0.7,0-0.8-0.2-0.8-0.8c0-2,0-3.9,0-5.9c0-0.7,0.2-0.9,0.9-0.8C-151,564.8-150,564.8-149,564.8z"/>
		<path class="st0" d="M-320,568.8c0,1,0,1.9,0,2.9c0,0.6-0.1,0.9-0.8,0.8c-2,0-5.9-0.3-7.9-0.3c-0.7,0-0.8-0.3-0.8-0.8
			c0-2,0-3.9,0-5.9c0-0.6,0.1-0.9,0.8-0.8c2,0,5.9,0.3,7.9,0.3c0.7,0,0.8,0.3,0.8,0.9C-320,566.8-320,567.8-320,568.8z"/>
		<path class="st0" d="M-333.5,572.2c-1,0-1.9,0-2.9,0c-0.6,0-0.8-0.2-0.8-0.8c0-2,0-3.9,0-5.9c0-0.7,0.1-0.9,0.8-0.9
			c2,0,3.9,0,5.9,0c0.7,0,0.9,0.2,0.9,0.9c0,2,0,3.9,0,5.9c0,0.6-0.1,0.9-0.8,0.8C-331.4,572.1-332.4,572.2-333.5,572.2z"/>
		<path class="st0" d="M-340.9,564.6c1,0,2,0,3,0c0.5,0,0.7,0.1,0.7,0.7c0,2.1,0,4.2,0,6.2c0,0.5-0.2,0.6-0.6,0.6
			c-2.1,0-4.2,0-6.4,0c-0.5,0-0.6-0.3-0.6-0.7c0-2,0-4.1,0-6.1c0-0.6,0.2-0.8,0.7-0.7C-343,564.7-342,564.6-340.9,564.6z"/>
		<path class="st0" d="M-348.8,572.2c-1,0-2,0-3,0c-0.5,0-0.7-0.2-0.7-0.7c0-2,0-4.1,0-6.1c0-0.6,0.2-0.7,0.8-0.7c2,0,4.1,0,6.1,0
			c0.5,0,0.7,0.2,0.7,0.7c0,2,0,4.1,0,6.1c0,0.6-0.2,0.7-0.8,0.7C-346.7,572.1-347.8,572.2-348.8,572.2z"/>
		<path class="st0" d="M-356.2,564.6c0.9,0,1.8,0,2.8,0c0.6,0,0.9,0.1,0.9,0.8c0,2,0,3.9,0,5.9c0,0.6-0.1,0.9-0.8,0.8c-2,0-4,0-6,0
			c-0.7,0-0.8-0.2-0.8-0.8c0-2,0-3.9,0-5.9c0-0.7,0.2-0.9,0.9-0.8C-358.2,564.7-357.2,564.6-356.2,564.6z"/>
		<path class="st0" d="M-118.4,484.3c1,0,2,0,3,0c0.5,0,0.7,0.1,0.7,0.7c0,2,0,4.1,0,6.1c0,0.6-0.1,0.8-0.7,0.8c-2,0-4.1,0-6.1,0
			c-0.5,0-0.7-0.1-0.7-0.7c0-2.1,0-4.2,0-6.2c0-0.6,0.3-0.7,0.7-0.6C-120.5,484.3-119.5,484.3-118.4,484.3z"/>
		<path class="st0" d="M-129.9,487.9c0-1,0-1.9,0-2.9c0-0.6,0.2-0.8,0.8-0.8c2,0,4,0,6,0c0.6,0,0.8,0.1,0.8,0.7c0,2,0,4.1,0,6.1
			c0,0.6-0.2,0.7-0.8,0.7c-2,0-4,0-6,0c-0.6,0-0.9-0.1-0.8-0.8C-129.9,490-130,488.9-129.9,487.9z"/>
		<path class="st0" d="M-133.9,491.8c-1,0-1.9,0-2.9,0c-0.6,0-0.9-0.1-0.8-0.8c0-2,0-4,0-6c0-0.7,0.3-0.8,0.8-0.8c2,0,3.9,0,5.9,0
			c0.6,0,0.9,0.1,0.8,0.8c0,2,0,4,0,6c0,0.7-0.3,0.8-0.8,0.8C-131.9,491.8-132.9,491.8-133.9,491.8z"/>
		<path class="st0" d="M-137.8,488.1c0,0.9,0,1.8,0,2.8c0,0.6-0.1,0.9-0.8,0.9c-2,0-3.9,0-5.9,0c-0.7,0-0.9-0.2-0.9-0.9
			c0-1.9,0-3.8,0-5.8c0-0.6,0.1-0.9,0.8-0.9c2,0.1,3.9,0,5.9,0c0.7,0,0.9,0.2,0.9,0.9C-137.8,486.1-137.8,487.1-137.8,488.1z"/>
		<path class="st0" d="M-145.5,488.4c-0.1,1,0.5,2.5-0.2,3.2c-0.7,0.6-2.2,0.2-3.3,0.2c-1,0-2.1,0-3.1,0c-0.6,0-0.9-0.1-0.8-0.8
			c0-2,0-4,0-6c0-0.7,0.2-0.8,0.8-0.8c2,0,3.9,0,5.9,0c0.7,0,0.9,0.3,0.8,0.9C-145.5,486.1-145.5,487.1-145.5,488.4z"/>
		<path class="st0" d="M-168.4,487.9c0.1-1.1-0.5-2.7,0.3-3.5c0.7-0.6,2.3-0.2,3.6-0.2c1,0,2,0,3,0c0.5,0,0.7,0.1,0.7,0.7
			c0,2.1,0,4.2,0,6.2c0,0.6-0.2,0.6-0.7,0.6c-2,0-4.1,0-6.1,0c-0.6,0-0.7-0.3-0.7-0.8C-168.3,490.1-168.4,489.1-168.4,487.9z"/>
		<path class="st0" d="M-172,484.3c1,0.1,2.6-0.5,3.3,0.3c0.6,0.7,0.2,2.3,0.2,3.5c0,1,0,2,0,3c0,0.6-0.1,0.9-0.8,0.8
			c-2,0-4.1,0-6.1,0c-0.5,0-0.7-0.1-0.7-0.7c0-2.1,0-4.1,0-6.2c0-0.5,0.2-0.7,0.7-0.7C-174.3,484.3-173.3,484.3-172,484.3z"/>
		<path class="st0" d="M-180,491.8c-1,0-2,0-3,0c-0.5,0-0.7-0.2-0.7-0.7c0-2,0-4.1,0-6.1c0-0.6,0.2-0.7,0.8-0.7c2,0,4.1,0,6.1,0
			c0.5,0,0.7,0.2,0.7,0.7c0,2,0,4.1,0,6.1c0,0.6-0.2,0.7-0.8,0.7C-178,491.8-179,491.8-180,491.8z"/>
		<path class="st0" d="M-187.5,484.3c1,0,1.9,0,2.9,0c0.6,0,0.8,0.2,0.8,0.8c0,2,0,3.9,0,5.9c0,0.7-0.2,0.9-0.9,0.8
			c-2,0-3.9,0-5.9,0c-0.6,0-0.8-0.2-0.8-0.8c0-2,0-3.9,0-5.9c0-0.7,0.2-0.9,0.9-0.8C-189.5,484.3-188.5,484.3-187.5,484.3z"/>
		<path class="st0" d="M-195.4,491.8c-1,0-1.9,0-2.9,0c-0.7,0-0.8-0.2-0.8-0.8c0-2,0-3.9,0-5.9c0-0.6,0.1-0.9,0.8-0.8c2,0,4,0,6,0
			c0.7,0,0.8,0.2,0.8,0.8c0,2,0,3.9,0,5.9c0,0.7-0.3,0.9-0.9,0.8C-193.4,491.7-194.4,491.8-195.4,491.8z"/>
		<path class="st0" d="M-329.6,514.7c0,1,0,2,0,3c0,0.5-0.2,0.7-0.7,0.7c-2,0-4.1,0-6.1,0c-0.6,0-0.7-0.2-0.7-0.7c0-2,0-4,0-6
			c0-0.6,0.2-0.8,0.7-0.8c2,0,4,0,6,0c0.6,0,0.7,0.3,0.7,0.8C-329.6,512.7-329.6,513.7-329.6,514.7L-329.6,514.7z"/>
		<path class="st0" d="M-352.7,514.7c0,0.9,0,1.8,0,2.6c0,0.7-0.1,1.1-1,1c-1.9-0.1-3.7,0-5.6,0c-0.7,0-0.9-0.2-0.9-0.9
			c0-1.9,0.1-3.8,0-5.7c0-0.7,0.2-0.9,0.9-0.9c1.9,0,3.8,0,5.7,0c0.6,0,0.8,0.2,0.8,0.8C-352.7,512.7-352.7,513.7-352.7,514.7
			L-352.7,514.7z"/>
		<path class="st0" d="M-364.1,518.3c-1,0-2,0-3,0c-0.5,0-0.7-0.2-0.7-0.7c0-2,0-4,0-6c0-0.6,0.1-0.8,0.7-0.8c2,0,4,0,6,0
			c0.6,0,0.7,0.2,0.7,0.8c0,2,0,3.9,0,5.9c0,0.6-0.1,0.9-0.8,0.8C-362.1,518.3-363.1,518.3-364.1,518.3z"/>
		<path class="st0" d="M-107.1,434.5c-0.1,1,0.5,2.6-0.2,3.3c-0.7,0.6-2.3,0.2-3.5,0.2s-2.8,0.5-3.5-0.2c-0.6-0.7-0.2-2.3-0.2-3.5
			c0-1,0-1.9,0-2.9c0-0.6,0.1-0.9,0.8-0.8c2,0,3.9,0,5.9,0c0.6,0,0.8,0.2,0.8,0.8C-107.1,432.3-107.1,433.3-107.1,434.5z"/>
		<path class="st0" d="M-133.9,438c-1,0-1.9,0-2.9,0c-0.7,0-0.8-0.2-0.8-0.8c0-1.9,0-3.8,0-5.7c0-0.7,0.1-0.9,0.9-0.9
			c1.9,0,3.8,0,5.7,0c0.7,0,0.9,0.2,0.8,0.9c0,1.9,0,3.8,0,5.7c0,0.6-0.1,0.9-0.8,0.8C-131.9,438-132.9,438-133.9,438z"/>
		<path class="st0" d="M-137.8,434.3c0,1,0,2,0,3c0,0.5-0.2,0.7-0.7,0.7c-2,0-4.1,0-6.1,0c-0.6,0-0.7-0.2-0.7-0.7c0-2,0-4,0-6
			c0-0.6,0.2-0.8,0.7-0.8c2,0,4,0,6,0c0.6,0,0.7,0.3,0.7,0.8C-137.8,432.3-137.8,433.3-137.8,434.3L-137.8,434.3z"/>
		<path class="st0" d="M-160.9,434.3c0,1,0,1.9,0,2.9c0,0.6-0.1,0.9-0.8,0.9c-2,0-4,0-6,0c-0.5,0-0.7-0.1-0.7-0.7c0-2,0-4.1,0-6.1
			c0-0.5,0.2-0.7,0.7-0.7c2,0,4,0,6,0c0.6,0,0.8,0.2,0.8,0.7C-160.9,432.3-160.9,433.3-160.9,434.3L-160.9,434.3z"/>
		<path class="st0" d="M-168.6,434.4c0,1.2,0.5,2.7-0.1,3.4c-0.7,0.8-2.2,0.2-3.4,0.2c-1,0-2,0-3,0c-0.6,0-0.9-0.1-0.8-0.8
			c0-2,0-4,0-6c0-0.5,0.2-0.7,0.7-0.7c2,0,4.1,0,6.1,0c0.6,0,0.7,0.2,0.7,0.7C-168.6,432.3-168.5,433.3-168.6,434.4L-168.6,434.4z"
			/>
		<path class="st0" d="M-176.2,434.3c0,1,0,1.9,0,2.9c0,0.7-0.2,0.9-0.9,0.8c-1.9,0-3.8,0-5.7,0c-0.6,0-0.8-0.1-0.8-0.8
			c0-2,0-3.9,0-5.9c0-0.6,0.2-0.8,0.8-0.8c2,0,3.9,0,5.9,0c0.6,0,0.8,0.1,0.8,0.7C-176.3,432.3-176.2,433.3-176.2,434.3
			L-176.2,434.3z"/>
		<path class="st0" d="M-222.3,434.3c0,0.9-0.1,1.8,0,2.8c0.1,0.8-0.2,0.9-0.9,0.9c-1.9,0-3.7,0-5.6,0c-0.7,0-0.9-0.1-0.9-0.9
			c0-1.9,0-3.8,0-5.7c0-0.7,0.2-0.9,0.9-0.9c1.9,0,3.8,0,5.7,0c0.6,0,0.9,0.2,0.8,0.8C-222.4,432.3-222.3,433.3-222.3,434.3
			L-222.3,434.3z"/>
		<path class="st0" d="M-230.1,434.4c0,1.2,0.5,2.7-0.1,3.3c-0.7,0.8-2.2,0.2-3.4,0.2c-1,0-2,0-3,0c-0.6,0-0.9-0.1-0.8-0.8
			c0-2,0-4,0-6c0-0.5,0.2-0.7,0.7-0.7c2,0,4.1,0,6.1,0c0.6,0,0.7,0.2,0.6,0.7C-230,432.3-230,433.3-230.1,434.4
			C-230,434.4-230,434.4-230.1,434.4z"/>
		<path class="st0" d="M-260.8,434.3c0,1.2,0.5,2.8-0.1,3.5c-0.7,0.8-2.3,0.2-3.5,0.2c-1,0-1.9,0-2.9,0c-0.6,0-0.9-0.1-0.8-0.8
			c0-2,0-4,0-6c0-0.5,0.2-0.7,0.7-0.7c2,0,4.1,0,6.1,0c0.6,0,0.7,0.2,0.6,0.7C-260.6,432.3-260.6,433.3-260.8,434.3
			C-260.6,434.3-260.8,434.3-260.8,434.3z"/>
		<path class="st0" d="M-268.5,434.3c0,1.2,0.5,2.8-0.1,3.5c-0.7,0.8-2.3,0.2-3.5,0.2c-1,0-1.9,0-2.9,0c-0.6,0-0.8-0.1-0.8-0.8
			c0-2,0-3.9,0-5.9c0-0.6,0.2-0.8,0.8-0.8c1.9,0,3.8,0,5.7,0c0.7,0,0.9,0.2,0.9,0.9C-268.4,432.4-268.4,433.3-268.5,434.3
			C-268.4,434.3-268.4,434.3-268.5,434.3z"/>
		<path class="st0" d="M-295.1,430.6c1,0,1.9,0,2.9,0c0.6,0,0.9,0.1,0.8,0.8c0,2,0,4,0,6c0,0.5-0.1,0.7-0.7,0.7c-2,0-4.1,0-6.1,0
			c-0.4,0-0.7-0.1-0.7-0.6c0-2.1,0-4.2,0-6.2c0-0.6,0.3-0.6,0.7-0.6C-297.1,430.6-296.1,430.6-295.1,430.6z"/>
		<path class="st0" d="M-306.5,434.3c0-1,0-1.9,0-2.9c0-0.6,0.1-0.8,0.8-0.8c2,0,3.9,0,5.9,0c0.6,0,0.8,0.2,0.8,0.8c0,2,0,3.9,0,5.9
			c0,0.6-0.1,0.8-0.7,0.8c-2,0-4,0-6,0c-0.6,0-0.8-0.2-0.7-0.8C-306.5,436.3-306.5,435.3-306.5,434.3L-306.5,434.3z"/>
		<path class="st0" d="M-314.2,434.3c0-1,0-1.9,0-2.9c0-0.6,0.1-0.9,0.8-0.9c2,0,4,0,6,0c0.5,0,0.7,0.2,0.7,0.7c0,2,0,4.1,0,6.1
			c0,0.4-0.1,0.7-0.6,0.7c-2.1,0-4.1,0-6.2,0c-0.6,0-0.6-0.3-0.6-0.7C-314.2,436.3-314.2,435.3-314.2,434.3L-314.2,434.3z"/>
		<path class="st0" d="M-360.6,434.3c0,1.2,0.5,2.8-0.1,3.5c-0.7,0.8-2.3,0.2-3.5,0.2c-1,0-2,0-3,0c-0.5,0-0.7-0.1-0.7-0.7
			c0-2,0-4.1,0-6.1c0-0.5,0.2-0.7,0.7-0.7c2,0,4,0,6,0c0.6,0,0.8,0.2,0.8,0.7C-360.6,432.3-360.6,433.3-360.6,434.3L-360.6,434.3z"
			/>
		<path class="st0" d="M-168.3,441.9c0-1,0-1.9,0-2.9c0-0.6,0.2-0.8,0.8-0.8c2,0,3.9,0,5.9,0c0.6,0,0.8,0.2,0.8,0.7c0,2,0,4,0,6
			c0,0.6-0.2,0.7-0.8,0.7c-2,0-3.9,0-5.9,0c-0.6,0-0.9-0.1-0.8-0.8C-168.3,443.9-168.3,442.9-168.3,441.9L-168.3,441.9z"/>
		<path class="st0" d="M-176,441.9c0-1,0-1.9,0-2.9c0-0.6,0.1-0.9,0.8-0.9c2,0,4,0,6,0c0.5,0,0.7,0.2,0.7,0.7c0,2,0,4.1,0,6.1
			c0,0.6-0.2,0.7-0.7,0.7c-2,0-4,0-6,0c-0.6,0-0.8-0.2-0.7-0.7C-175.9,443.9-176,442.9-176,441.9L-176,441.9z"/>
		<path class="st0" d="M-199,441.7c0.1-1-0.5-2.6,0.3-3.2c0.7-0.6,2.2-0.2,3.4-0.2c1,0,2,0,3,0c0.6,0,0.9,0.1,0.8,0.8
			c0,2,0,3.9,0,5.9c0,0.6-0.2,0.8-0.8,0.8c-2,0-3.9,0-5.9,0c-0.7,0-0.8-0.2-0.8-0.8C-199,443.9-199,442.9-199,441.7z"/>
		<path class="st0" d="M-206.6,441.9c0-1.2-0.5-2.8,0.1-3.5c0.7-0.8,2.3-0.2,3.5-0.2s2.8-0.4,3.5,0.2c0.8,0.7,0.2,2.3,0.2,3.5
			c0,1,0,1.9,0,2.9c0,0.6-0.1,0.9-0.8,0.9c-2,0-4,0-6,0c-0.6,0-0.8-0.2-0.7-0.8C-206.7,443.9-206.7,442.9-206.6,441.9
			C-206.7,441.9-206.7,441.9-206.6,441.9z"/>
		<path class="st0" d="M-206.9,442c0,0.9,0,1.8,0,2.8c0,0.6-0.1,0.9-0.8,0.9c-2,0-3.9,0-5.9,0c-0.6,0-0.8-0.1-0.8-0.7c0-2,0-4,0-6
			c0-0.6,0.2-0.7,0.8-0.7c2,0,3.9,0,5.9,0c0.6,0,0.9,0.1,0.8,0.8C-207,440-206.9,441-206.9,442L-206.9,442z"/>
		<path class="st0" d="M-237.4,441.9c0-0.8,0.1-1.7,0-2.5s0.1-1.2,1.1-1.2c1.8,0.1,3.6,0.1,5.4,0c0.8,0,1,0.3,1,1c0,1.8,0,3.7,0,5.5
			c0,0.7-0.1,1-0.9,1c-1.9-0.1-3.8,0-5.8,0c-0.6,0-0.8-0.2-0.8-0.8C-237.4,443.9-237.4,442.9-237.4,441.9L-237.4,441.9z"/>
		<path class="st0" d="M-260.6,442c0,1,0,1.9,0,2.9c0,0.7-0.2,0.8-0.8,0.8c-2,0-3.9,0-5.9,0c-0.6,0-0.8-0.1-0.8-0.7c0-2,0-4,0-6
			c0-0.6,0.2-0.7,0.8-0.7c2,0,4,0,6,0c0.5,0,0.7,0.2,0.7,0.7C-260.6,439.9-260.6,441-260.6,442L-260.6,442z"/>
		<path class="st0" d="M-272,438.3c1.2,0,2.7-0.5,3.4,0.1c0.8,0.7,0.2,2.2,0.2,3.4c0,1,0,2,0,3c0,0.6-0.1,0.9-0.8,0.8
			c-2,0-3.9,0-5.9,0c-0.6,0-0.8-0.2-0.8-0.8c0-2,0-3.9,0-5.9c0-0.7,0.2-0.8,0.8-0.8C-274,438.3-273,438.2-272,438.3L-272,438.3z"/>
		<path class="st0" d="M-295.2,445.7c-1,0-1.9,0-2.9,0c-0.7,0-0.8-0.2-0.8-0.8c0-1.9,0-3.8,0-5.8c0-0.7,0.1-0.9,0.9-0.9
			c1.9,0,3.8,0,5.8,0c0.7,0,0.9,0.2,0.8,0.9c0,1.9,0,3.8,0,5.8c0,0.6-0.1,0.9-0.8,0.8C-293.1,445.6-294.1,445.7-295.2,445.7z"/>
		<path class="st0" d="M-303.1,445.7c-1-0.1-2.6,0.5-3.2-0.2s-0.2-2.2-0.2-3.4c0-1,0-2,0-3c0-0.6,0.1-0.9,0.8-0.9c2,0,4,0,6,0
			c0.5,0,0.7,0.2,0.7,0.7c0,2,0,4.1,0,6.1c0,0.6-0.2,0.7-0.7,0.7C-300.8,445.7-301.9,445.7-303.1,445.7z"/>
		<path class="st0" d="M-326.2,445.7c-1-0.1-2.6,0.5-3.2-0.3c-0.6-0.7-0.2-2.2-0.2-3.4c0-1,0-2,0-3c0-0.6,0.1-0.9,0.8-0.8
			c2,0,3.9,0,5.9,0c0.6,0,0.8,0.2,0.8,0.8c0,1.9-0.1,3.8,0,5.8c0,0.8-0.3,0.9-1,0.9C-324.1,445.6-325,445.7-326.2,445.7z"/>
		<path class="st0" d="M-333.4,438.3c1.2,0,2.7-0.6,3.4,0.2c0.6,0.7,0.2,2.2,0.2,3.3c0,1.3,0.6,2.9-0.2,3.7
			c-0.7,0.6-2.3,0.2-3.6,0.2c-1.2,0-2.7,0.5-3.4-0.2c-0.6-0.6-0.2-2.2-0.2-3.3c0-1.3-0.5-2.9,0.2-3.7
			C-336.2,437.8-334.7,438.3-333.4,438.3z"/>
		<path class="st0" d="M-337.5,442.3c-0.1,1,0.5,2.5-0.2,3.2c-0.7,0.6-2.2,0.2-3.4,0.2s-2.9,0.4-3.6-0.2c-0.8-0.7-0.2-2.4-0.2-3.7
			c0-1.1-0.4-2.7,0.2-3.3c0.7-0.7,2.3-0.2,3.4-0.2c1,0,2.1,0,3.1,0c0.5,0,0.7,0.2,0.7,0.7C-337.5,440-337.5,441-337.5,442.3z"/>
		<path class="st0" d="M-368,441.9c0-1,0-1.9,0-2.9c0-0.7,0.2-0.9,0.9-0.9c1.9,0,3.8,0,5.8,0c0.7,0,0.8,0.2,0.8,0.8c0,2,0,3.9,0,5.9
			c0,0.5-0.1,0.8-0.7,0.8c-2,0-4,0-6,0c-0.6,0-0.8-0.2-0.7-0.8C-367.9,443.9-368,442.9-368,441.9L-368,441.9z"/>
		<path class="st0" d="M-118.2,511.1c1,0.1,2.6-0.5,3.3,0.3c0.6,0.7,0.2,2.3,0.2,3.5c0,1,0,1.9,0,2.9c0,0.6-0.1,0.9-0.8,0.8
			c-2,0-4,0-6,0c-0.5,0-0.7-0.2-0.7-0.7c0-2,0-4.1,0-6.1c0-0.6,0.2-0.7,0.7-0.7C-120.4,511.1-119.4,511.1-118.2,511.1z"/>
		<path class="st0" d="M-126.2,518.5c-1,0-1.9,0-2.9,0c-0.7,0-0.8-0.2-0.8-0.8c0-2,0-3.9,0-5.9c0-0.6,0.1-0.8,0.7-0.8c2,0,4,0,6,0
			c0.6,0,0.7,0.2,0.7,0.8c0,2,0,3.9,0,5.9c0,0.6-0.2,0.8-0.8,0.8C-124.2,518.5-125.2,518.5-126.2,518.5z"/>
		<path class="st0" d="M-145.4,515.1c-0.1,1,0.5,2.5-0.2,3.2c-0.7,0.6-2.2,0.2-3.4,0.2c-1,0-2,0-3,0c-0.6,0-0.9-0.1-0.8-0.8
			c0-2,0-4,0-6c0-0.5,0.1-0.7,0.7-0.7c2,0,4.1,0,6.1,0c0.6,0,0.7,0.2,0.6,0.7C-145.5,512.8-145.4,513.9-145.4,515.1z"/>
		<path class="st0" d="M-191.7,426.6c0,1.2,0.5,2.8-0.1,3.5c-0.7,0.8-2.3,0.2-3.5,0.2c-1,0-2,0-3,0c-0.5,0-0.7-0.1-0.7-0.7
			c0-2,0-4.1,0-6.1c0-0.5,0.2-0.6,0.6-0.6c2,0,4.1,0,6.1,0c0.5,0,0.7,0.2,0.7,0.7C-191.6,424.6-191.6,425.6-191.7,426.6
			C-191.6,426.6-191.6,426.6-191.7,426.6z"/>
		<path class="st0" d="M-202.8,422.9c1,0.1,2.7-0.5,3.3,0.3c0.6,0.7,0.2,2.3,0.2,3.5c0,1,0,1.9,0,2.9c0,0.7-0.2,0.8-0.8,0.8
			c-2,0-3.9,0-5.9,0c-0.6,0-0.8-0.2-0.8-0.7c0-2,0-4,0-6c0-0.5,0.2-0.7,0.7-0.7C-205,422.9-204,422.9-202.8,422.9z"/>
		<path class="st0" d="M-210.5,422.9c1,0.1,2.7-0.5,3.3,0.3c0.6,0.7,0.2,2.3,0.2,3.5c0,1,0,1.9,0,2.9c0,0.7-0.2,0.8-0.8,0.8
			c-2,0-3.9,0-5.9,0c-0.6,0-0.8-0.2-0.8-0.7c0-2,0-4,0-6c0-0.5,0.2-0.7,0.7-0.7C-212.7,422.9-211.7,422.9-210.5,422.9z"/>
		<path class="st0" d="M-222.1,426.6c0-1,0-2,0-3c0-0.5,0.2-0.7,0.7-0.7c2,0,4,0,6,0c0.6,0,0.8,0.1,0.8,0.7c0,2,0,4,0,6
			c0,0.5-0.2,0.7-0.7,0.7c-2,0-4,0-6,0c-0.7,0-0.8-0.3-0.8-0.9C-222,428.5-222.1,427.5-222.1,426.6L-222.1,426.6z"/>
		<path class="st0" d="M-225.8,422.9c0.9,0,1.8,0,2.6,0c0.6,0,0.9,0.1,0.9,0.8c0,1.9,0,3.8,0,5.8c0,0.6-0.1,0.9-0.8,0.8
			c-2,0-3.9,0-5.9,0c-0.5,0-0.8-0.1-0.8-0.7c0-2,0-4,0-6c0-0.6,0.2-0.7,0.8-0.7C-227.9,422.9-226.9,422.9-225.8,422.9z"/>
		<path class="st0" d="M-271.8,422.9c1,0.1,2.6-0.5,3.2,0.2c0.6,0.7,0.2,2.2,0.2,3.4c0,1,0,2,0,3c0,0.6-0.1,0.8-0.8,0.8
			c-2,0-3.9,0-5.9,0c-0.7,0-0.8-0.3-0.8-0.8c0-1.9,0-3.8,0-5.8c0-0.6,0.1-0.9,0.8-0.8C-274,422.9-273,422.9-271.8,422.9z"/>
		<path class="st0" d="M-276.1,426.7c0,1.2,0.5,2.7-0.1,3.4c-0.7,0.8-2.2,0.2-3.4,0.2c-1,0-2.1,0-3.1,0c-0.5,0-0.7-0.2-0.7-0.7
			c0-2,0-4,0-6c0-0.6,0.2-0.7,0.8-0.7c2,0,4,0,6,0c0.5,0,0.7,0.2,0.7,0.7C-276.1,424.6-276.1,425.7-276.1,426.7L-276.1,426.7z"/>
		<path class="st0" d="M-287.1,422.9c1,0.1,2.6-0.5,3.2,0.2c0.6,0.7,0.2,2.2,0.2,3.4c0,1,0,2.1,0,3.1c0,0.5-0.2,0.7-0.7,0.7
			c-2,0-4,0-6,0c-0.5,0-0.8-0.1-0.8-0.7c0-2,0-4,0-6c0-0.5,0.2-0.7,0.7-0.7C-289.5,422.9-288.4,422.9-287.1,422.9z"/>
		<path class="st0" d="M-295.1,430.3c-1,0-1.9,0-2.9,0c-0.7,0-0.9-0.2-0.9-0.9c0-1.9,0-3.8,0-5.8c0-0.5,0.1-0.8,0.7-0.8c2,0,4,0,6,0
			c0.6,0,0.7,0.2,0.7,0.8c0,2,0,3.9,0,5.9c0,0.7-0.2,0.8-0.8,0.8C-293.1,430.3-294.1,430.3-295.1,430.3z"/>
		<path class="st0" d="M-306.9,426.7c0,1.2,0.5,2.7-0.1,3.4c-0.7,0.8-2.2,0.2-3.4,0.2c-1,0-2,0-3,0c-0.6,0-0.8-0.2-0.8-0.8
			c0-1.9,0-3.8,0-5.8c0-0.7,0.2-0.9,0.9-0.9c1.9,0,3.8,0,5.8,0c0.7,0,0.8,0.2,0.8,0.8C-306.8,424.7-306.8,425.7-306.9,426.7
			C-306.8,426.7-306.9,426.7-306.9,426.7z"/>
		<path class="st0" d="M-318.2,430.3c-1,0-1.9,0-2.9,0c-0.6,0-0.9-0.1-0.9-0.8c0-2,0-3.9,0-5.9c0-0.7,0.3-0.8,0.8-0.8
			c1.9,0,3.8,0,5.8,0c0.6,0,0.9,0.1,0.8,0.8c0,2,0,3.9,0,5.9c0,0.7-0.3,0.8-0.9,0.8C-316.2,430.3-317.2,430.3-318.2,430.3z"/>
		<path class="st0" d="M-325.9,430.3c-1,0-1.9,0-2.9,0c-0.6,0-0.9-0.1-0.8-0.8c0-2,0-3.9,0-5.9c0-0.7,0.3-0.8,0.9-0.8
			c1.9,0,3.8,0,5.8,0c0.6,0,0.9,0.1,0.8,0.8c0,2,0,3.9,0,5.9c0,0.7-0.3,0.8-0.9,0.8C-323.9,430.3-324.9,430.3-325.9,430.3z"/>
		<path class="st0" d="M-329.8,426.6c0,1,0,1.9,0,2.9c0,0.6-0.1,0.9-0.8,0.8c-2,0-3.9,0-5.9,0c-0.6,0-0.8-0.2-0.8-0.8
			c0-1.9,0-3.8,0-5.8c0-0.6,0.1-0.9,0.8-0.8c2,0,3.9,0,5.9,0c0.7,0,0.8,0.2,0.8,0.8C-329.9,424.7-329.8,425.6-329.8,426.6
			L-329.8,426.6z"/>
		<path class="st0" d="M-344.9,426.6c0-1.2-0.5-2.8,0.1-3.5c0.7-0.8,2.3-0.2,3.5-0.2c1,0,2,0,3,0c0.5,0,0.7,0.2,0.7,0.7c0,2,0,4,0,6
			c0,0.6-0.2,0.7-0.8,0.7c-2,0-4,0-6,0c-0.5,0-0.7-0.2-0.7-0.7C-344.9,428.6-344.9,427.6-344.9,426.6L-344.9,426.6z"/>
		<path class="st0" d="M-349,430.2c-1.2,0-2.7,0.5-3.4-0.1c-0.8-0.7-0.2-2.2-0.2-3.4c0-0.9,0-1.8,0-2.8c0-0.7,0.1-1.1,1-1
			c1.9,0.1,3.8,0.1,5.6,0c0.7,0,0.9,0.2,0.9,0.9c0,1.9-0.1,3.8,0,5.6c0,0.8-0.3,0.9-1,0.9C-347.1,430.3-348.1,430.3-349,430.2
			C-349,430.3-349,430.2-349,430.2z"/>
		<path class="st0" d="M-356.6,422.9c1,0,2,0,3,0c0.5,0,0.7,0.2,0.7,0.7c0,2,0,4,0,6c0,0.6-0.2,0.7-0.8,0.7c-2,0-4,0-6,0
			c-0.5,0-0.7-0.1-0.7-0.7c0-2,0-4,0-6c0-0.6,0.2-0.8,0.8-0.7C-358.6,422.9-357.6,422.9-356.6,422.9z"/>
		<path class="st0" d="M-368,426.6c0-1,0-1.9,0-2.9c0-0.6,0.1-0.8,0.8-0.8c2,0,3.9,0,5.9,0c0.6,0,0.8,0.1,0.8,0.7c0,2,0,3.9,0,5.9
			c0,0.6-0.2,0.8-0.8,0.8c-2,0-3.9,0-5.9,0c-0.6,0-0.8-0.1-0.8-0.7C-367.9,428.6-368,427.6-368,426.6z"/>
		<path class="st0" d="M-129.8,507.1c0-1,0-1.9,0-2.9c0-0.6,0.1-0.8,0.8-0.8c2,0,3.9,0,5.9,0c0.6,0,0.8,0.1,0.8,0.7c0,2,0,4,0,6
			c0,0.5-0.1,0.7-0.7,0.7c-2,0-4.1,0-6.1,0c-0.6,0-0.7-0.3-0.6-0.7C-129.8,509.1-129.8,508.1-129.8,507.1L-129.8,507.1z"/>
		<path class="st0" d="M-133.7,503.5c1.2,0,2.7-0.5,3.4,0.1c0.8,0.7,0.2,2.2,0.2,3.4c0,0.9,0,1.8,0,2.6c0.1,0.8-0.1,1.2-1.1,1.2
			c-1.8-0.1-3.7-0.1-5.5,0c-0.7,0-0.9-0.2-0.9-0.9c0-1.9,0.1-3.8,0-5.6c0-0.8,0.3-0.9,1-0.9C-135.6,503.5-134.6,503.4-133.7,503.5
			L-133.7,503.5z"/>
		<path class="st0" d="M-141.6,510.7c-1.2,0-2.7,0.5-3.4-0.1c-0.8-0.7-0.2-2.2-0.2-3.4c0-1.2-0.5-2.9,0.2-3.6
			c0.7-0.6,2.3-0.2,3.5-0.2c1,0,1.9,0,2.9,0c0.6,0,0.9,0.1,0.8,0.8c0,2,0,3.9,0,5.9c0,0.7-0.3,0.8-0.9,0.8
			C-139.6,510.8-140.6,510.8-141.6,510.7C-141.6,510.8-141.6,510.8-141.6,510.7z"/>
		<path class="st0" d="M-149.1,510.8c-1,0-1.9,0-2.9,0c-0.6,0-0.9-0.1-0.8-0.8c0-2,0-3.9,0-5.9c0-0.7,0.3-0.8,0.8-0.8
			c1.9,0,3.8,0,5.8,0c0.7,0,0.8,0.3,0.8,0.9c0,1.9,0,3.8,0,5.6c0,0.7-0.1,0.9-0.9,0.9C-147.2,510.8-148.2,510.8-149.1,510.8z"/>
		<path class="st0" d="M-333.4,510.7c-1,0-2,0-3,0c-0.5,0-0.7-0.1-0.7-0.7c0-2,0-4,0-6c0-0.6,0.2-0.8,0.7-0.8c2,0,4,0,6,0
			c0.5,0,0.7,0.1,0.7,0.7c0,2,0,4,0,6c0,0.6-0.2,0.8-0.7,0.8C-331.4,510.6-332.4,510.7-333.4,510.7z"/>
		<path class="st0" d="M-340.8,503.3c0.9,0,1.8,0,2.6,0c0.6,0,0.9,0.1,0.9,0.8c0,1.9,0,3.8,0,5.8c0,0.6-0.1,0.8-0.8,0.8
			c-2,0-3.9,0-5.9,0c-0.7,0-0.8-0.2-0.8-0.8c0-1.9,0-3.8,0-5.8c0-0.7,0.3-0.9,0.9-0.8C-342.8,503.3-341.8,503.3-340.8,503.3z"/>
		<path class="st0" d="M-345,507c0,0.9,0,1.8,0,2.8c0,0.6-0.1,0.9-0.8,0.9c-1.9,0-3.8,0-5.8,0c-0.7,0-0.9-0.2-0.9-0.9
			c0-1.9,0-3.8,0-5.8c0-0.5,0.1-0.8,0.7-0.8c2,0,4,0,6,0c0.6,0,0.8,0.2,0.7,0.8C-345,505-345,506-345,507L-345,507z"/>
		<path class="st0" d="M-360.1,506.9c0-1,0-1.9,0-2.9c0-0.6,0.1-0.8,0.8-0.8c2,0,3.9,0,5.9,0c0.6,0,0.8,0.1,0.8,0.7c0,2,0,4,0,6
			c0,0.5-0.1,0.7-0.7,0.7c-2,0-4.1,0-6.1,0c-0.6,0-0.7-0.3-0.6-0.7C-360.1,508.9-360.1,507.9-360.1,506.9z"/>
		<path class="st0" d="M-111,430.3c-1-0.1-2.7,0.5-3.3-0.2c-0.6-0.7-0.2-2.4-0.2-3.6c0-0.9,0-1.8,0-2.8c0-0.6,0.1-0.8,0.8-0.8
			c2,0,3.9,0,5.9,0c0.7,0,0.8,0.3,0.8,0.8c0,1.9,0,3.8,0,5.8c0,0.7-0.3,0.9-0.9,0.8C-108.9,430.3-109.9,430.3-111,430.3z"/>
		<path class="st0" d="M-122.2,426.5c0-0.9,0-1.8,0-2.8c0-0.6,0.1-0.8,0.8-0.8c2,0,3.9,0,5.9,0c0.7,0,0.8,0.3,0.8,0.8
			c0,1.9,0,3.8,0,5.8c0,0.6-0.1,0.8-0.8,0.8c-2,0-3.9,0-5.9,0c-0.7,0-0.8-0.2-0.8-0.8C-122.2,428.5-122.2,427.5-122.2,426.5
			L-122.2,426.5z"/>
		<path class="st0" d="M-126.5,430.3c-1-0.1-2.6,0.5-3.2-0.3c-0.6-0.7-0.2-2.2-0.2-3.4c0-1,0-2,0-3c0-0.7,0.2-0.8,0.8-0.8
			c2,0,3.9,0,5.9,0c0.6,0,0.8,0.2,0.7,0.7c0,2,0,3.9,0,5.9c0,0.7-0.2,0.8-0.8,0.8C-124.3,430.3-125.3,430.3-126.5,430.3z"/>
		<path class="st0" d="M-137.6,426.6c0-1,0-1.9,0-2.9c0-0.6,0.2-0.8,0.8-0.8c2,0,3.9,0,5.9,0c0.6,0,0.8,0.2,0.7,0.7c0,2,0,4,0,6
			c0,0.5-0.2,0.7-0.7,0.7c-2,0-4,0-6,0c-0.6,0-0.8-0.2-0.8-0.7C-137.5,428.6-137.6,427.6-137.6,426.6L-137.6,426.6z"/>
		<path class="st0" d="M-145.3,426.5c0-0.9,0-1.8,0-2.8c0-0.6,0.1-0.9,0.8-0.8c2,0,3.9,0,5.9,0c0.7,0,0.8,0.2,0.8,0.8
			c0,1.9,0,3.8,0,5.8c0,0.6-0.1,0.9-0.8,0.8c-2,0-3.9,0-5.9,0c-0.7,0-0.8-0.2-0.8-0.8C-145.2,428.5-145.3,427.5-145.3,426.5
			L-145.3,426.5z"/>
		<path class="st0" d="M-145.5,426.7c0,0.9,0,1.8,0,2.8c0,0.6-0.1,0.9-0.8,0.8c-2,0-3.9,0-5.9,0c-0.5,0-0.8-0.1-0.8-0.7c0-2,0-4,0-6
			c0-0.6,0.2-0.7,0.8-0.7c2,0,3.9,0,5.9,0c0.6,0,0.8,0.2,0.8,0.8C-145.5,424.7-145.5,425.7-145.5,426.7L-145.5,426.7z"/>
		<path class="st0" d="M-157,430.2c-1.2,0-2.7,0.5-3.4-0.1c-0.8-0.7-0.2-2.2-0.2-3.4c0-0.9,0-1.8,0-2.8c0-0.7,0.1-1.1,1-1
			c1.9,0.1,3.8,0.1,5.6,0c0.7,0,0.9,0.2,0.9,0.9c0,1.9-0.1,3.8,0,5.6c0,0.8-0.3,0.9-1,0.9C-155.1,430.3-156.1,430.3-157,430.2
			C-157,430.3-157,430.2-157,430.2z"/>
		<path class="st0" d="M-164.7,430.3c-1-0.1-2.6,0.5-3.3-0.3c-0.6-0.7-0.2-2.3-0.2-3.5c0-1,0-2,0-3c0-0.5,0.1-0.7,0.7-0.7
			c2,0,4,0,6,0c0.6,0,0.8,0.2,0.8,0.7c0,2,0,4,0,6c0,0.5-0.2,0.7-0.7,0.7C-162.5,430.3-163.5,430.3-164.7,430.3z"/>
		<path class="st0" d="M-183.7,426.6c0-1,0-2,0-3c0-0.5,0.1-0.7,0.7-0.7c2,0,4.1,0,6.1,0c0.6,0,0.6,0.3,0.6,0.7c0,2,0,4,0,6
			c0,0.5-0.1,0.7-0.7,0.7c-2,0-4,0-6,0c-0.7,0-0.8-0.3-0.8-0.9C-183.6,428.5-183.7,427.5-183.7,426.6L-183.7,426.6z"/>
		<path class="st0" d="M-191.3,426.5c0.1-1-0.5-2.7,0.3-3.4c0.7-0.6,2.3-0.2,3.5-0.2c1,0,1.9,0,2.9,0c0.6,0,0.8,0.1,0.8,0.8
			c0,2,0,3.9,0,5.9c0,0.6-0.2,0.8-0.7,0.8c-2,0-4,0-6,0c-0.6,0-0.7-0.3-0.7-0.8C-191.3,428.6-191.3,427.6-191.3,426.5z"/>
		<path class="st0" d="M-157,461c-1.2,0-2.8,0.6-3.4-0.2c-0.6-0.7-0.2-2.2-0.2-3.4c0-1.3-0.5-2.9,0.2-3.7c0.7-0.6,2.4-0.2,3.6-0.2
			s2.8-0.5,3.4,0.2c0.6,0.7,0.2,2.2,0.2,3.4c0,1.3,0.6,3-0.2,3.7C-154.1,461.5-155.8,461-157,461z"/>
		<path class="st0" d="M-164.7,461.1c-0.9,0-1.8,0-2.8,0c-0.6,0-0.9-0.1-0.9-0.8c0.1-2,0-3.9,0-5.9c0-0.6,0.2-0.8,0.8-0.8
			c2,0,3.9,0,5.9,0c0.6,0,0.9,0.1,0.8,0.8c0,2,0,4,0,6c0,0.6-0.2,0.8-0.7,0.7C-162.6,461-163.6,461.1-164.7,461.1z"/>
		<path class="st0" d="M-168.5,457.4c0,1,0,1.9,0,2.9c0,0.6-0.2,0.8-0.8,0.8c-2,0-3.9,0-5.9,0c-0.6,0-0.8-0.1-0.8-0.8c0-2,0-4,0-6
			c0-0.6,0.2-0.8,0.7-0.7c2,0,4,0,6,0c0.7,0,0.8,0.3,0.8,0.9C-168.5,455.4-168.5,456.4-168.5,457.4L-168.5,457.4z"/>
		<path class="st0" d="M-195.3,461.1c-1.2-0.1-2.9,0.5-3.6-0.3c-0.6-0.7-0.2-2.3-0.2-3.5s-0.5-2.9,0.2-3.5s2.3-0.2,3.5-0.2
			s2.8-0.4,3.5,0.2c0.8,0.7,0.2,2.3,0.2,3.5s0.4,2.8-0.2,3.5C-192.5,461.6-194.1,460.9-195.3,461.1z"/>
		<path class="st0" d="M-199.2,457.4c0,1,0,1.9,0,2.9c0,0.6-0.1,0.8-0.8,0.8c-2,0-4,0-6,0c-0.6,0-0.8-0.1-0.8-0.7c0-2,0-4,0-6
			c0-0.5,0.1-0.8,0.7-0.8c2,0,4.1,0,6.1,0c0.5,0,0.7,0.2,0.7,0.7C-199.3,455.3-199.2,456.3-199.2,457.4L-199.2,457.4z"/>
		<path class="st0" d="M-210.6,453.6c1,0,1.9,0,2.9,0c0.7,0,0.8,0.2,0.8,0.8c0,2,0,3.9,0,5.9c0,0.7-0.2,0.8-0.8,0.8
			c-2,0-3.9,0-5.9,0c-0.6,0-0.8-0.2-0.8-0.8c0-2,0-3.9,0-5.9c0-0.6,0.2-0.8,0.8-0.8C-212.6,453.6-211.6,453.6-210.6,453.6z"/>
		<path class="st0" d="M-233.8,461c-1.2,0-2.8,0.6-3.4-0.2c-0.6-0.7-0.2-2.2-0.2-3.4c0-1.3-0.5-3,0.2-3.7c0.7-0.6,2.3-0.2,3.6-0.2
			c1.2,0,2.8-0.5,3.4,0.2c0.6,0.7,0.2,2.2,0.2,3.4c0,1.3,0.6,3-0.2,3.7C-230.9,461.5-232.6,461-233.8,461z"/>
		<path class="st0" d="M-260.6,457.4c0,1,0,2,0,3c0,0.5-0.1,0.7-0.7,0.7c-2,0-4.1,0-6.1,0c-0.6,0-0.7-0.2-0.7-0.8c0-2,0-4,0-6
			c0-0.6,0.1-0.8,0.7-0.8c2,0,4,0,6,0c0.7,0,0.8,0.3,0.8,0.8C-260.6,455.4-260.6,456.4-260.6,457.4L-260.6,457.4z"/>
		<path class="st0" d="M-272.2,461.1c-1-0.1-2.6,0.5-3.3-0.3c-0.6-0.7-0.2-2.3-0.2-3.5c0-1,0-2,0-3c0-0.7,0.2-0.8,0.8-0.8
			c2,0,3.9,0,5.9,0c0.6,0,0.8,0.2,0.8,0.8c0,2,0,3.9,0,5.9c0,0.7-0.2,0.9-0.9,0.8C-270.1,461-271.1,461.1-272.2,461.1z"/>
		<path class="st0" d="M-291.4,457.4c0,1,0,1.9,0,2.9c0,0.6-0.2,0.8-0.8,0.8c-2,0-3.9,0-5.9,0c-0.6,0-0.8-0.1-0.8-0.8c0-2,0-4,0-6
			c0-0.6,0.2-0.7,0.8-0.7c2,0,4,0,6,0c0.6,0,0.8,0.2,0.8,0.7C-291.4,455.3-291.4,456.4-291.4,457.4L-291.4,457.4z"/>
		<path class="st0" d="M-299.1,457.7c-0.1,0.9,0.5,2.5-0.2,3.2c-0.7,0.6-2.2,0.2-3.3,0.2c-1,0-2.1,0-3.1,0c-0.6,0-0.8-0.2-0.8-0.8
			c0-2,0-3.9,0-5.9c0-0.7,0.3-0.9,0.9-0.8c1.9,0,3.8,0,5.7,0c0.7,0,0.9,0.2,0.9,0.9C-299.1,455.4-299.1,456.4-299.1,457.7z"/>
		<path class="st0" d="M-325.8,453.7c1.2,0,2.8-0.6,3.4,0.2c0.6,0.7,0.2,2.2,0.2,3.4c0,1.3,0.6,3-0.2,3.7c-0.7,0.6-2.4,0.2-3.6,0.2
			s-2.8,0.5-3.4-0.2c-0.6-0.6-0.2-2.2-0.2-3.3c0-1.3-0.5-3,0.2-3.7C-328.7,453.2-327,453.7-325.8,453.7z"/>
		<path class="st0" d="M-333.9,461c-1-0.1-2.6,0.5-3.2-0.2s-0.2-2.2-0.2-3.3c0-1,0-2.1,0-3.1c0-0.7,0.2-0.8,0.8-0.8c2,0,3.9,0,5.9,0
			c0.6,0,0.8,0.1,0.8,0.8c0,2,0,3.9,0,5.9c0,0.7-0.2,0.9-0.9,0.8C-331.7,461-332.7,461-333.9,461z"/>
		<path class="st0" d="M-344.9,457.2c0.1-1.2-0.6-2.8,0.2-3.4c0.7-0.6,2.2-0.2,3.4-0.2c1.3,0,2.9-0.6,3.7,0.3
			c0.6,0.7,0.2,2.4,0.2,3.6s0.4,2.7-0.2,3.4c-0.7,0.8-2.3,0.2-3.4,0.2c-1.3,0-3,0.6-3.7-0.2C-345.4,460.1-344.9,458.4-344.9,457.2z"
			/>
		<path class="st0" d="M-360.5,457.3c-0.1,1.2,0.5,2.9-0.3,3.5c-0.7,0.6-2.3,0.2-3.5,0.2s-2.8,0.4-3.5-0.2c-0.8-0.7-0.2-2.3-0.2-3.5
			s-0.5-2.9,0.2-3.6c0.7-0.6,2.3-0.2,3.5-0.2s2.8-0.4,3.5,0.2C-360,454.5-360.7,456.1-360.5,457.3z"/>
		<path class="st0" d="M-107,530.3c0,0.9,0,1.8,0,2.8c0,0.6-0.1,0.9-0.8,0.9c-2,0-3.9,0-5.9,0c-0.7,0-0.8-0.2-0.8-0.8
			c0-2,0-3.9,0-5.9c0-0.7,0.2-0.8,0.8-0.8c1.9,0,3.8,0.1,5.7,0c0.8,0,0.9,0.3,0.9,1C-107.1,528.3-107,529.3-107,530.3L-107,530.3z"
			/>
		<path class="st0" d="M-114.7,530.2c-0.1,1.2,0.5,2.8-0.3,3.5c-0.7,0.6-2.3,0.2-3.5,0.2s-2.9,0.5-3.5-0.2s-0.2-2.3-0.2-3.5
			s-0.5-2.9,0.2-3.5s2.3-0.2,3.5-0.2s2.8-0.4,3.5,0.2C-114.1,527.3-114.8,528.9-114.7,530.2z"/>
		<path class="st0" d="M-157,468.7c-1-0.1-2.7,0.5-3.4-0.3c-0.6-0.7-0.2-2.4-0.2-3.6c0-0.9,0-1.8,0-2.6c0-0.7,0.1-1.1,1-1
			c1.9,0.1,3.8,0,5.8,0c0.6,0,0.8,0.2,0.8,0.8c0,2,0,3.9,0,5.9c0,0.7-0.3,0.9-0.9,0.8C-155,468.7-155.9,468.7-157,468.7z"/>
		<path class="st0" d="M-164.7,468.7c-1,0-1.9,0-2.9,0c-0.7,0-0.8-0.2-0.8-0.8c0-2,0-3.9,0-5.9c0-0.6,0.1-0.8,0.8-0.8
			c2,0,3.9,0,5.9,0c0.6,0,0.9,0.1,0.9,0.8c0,2,0,4,0,6c0,0.6-0.2,0.8-0.7,0.8C-162.6,468.7-163.6,468.7-164.7,468.7z"/>
		<path class="st0" d="M-172.5,468.7c-1-0.1-2.7,0.5-3.3-0.3c-0.6-0.7-0.2-2.3-0.2-3.5c0-1,0-2,0-3c0-0.7,0.2-0.8,0.8-0.8
			c2,0,3.9,0,5.9,0c0.6,0,0.8,0.2,0.8,0.8c0,2,0,3.9,0,5.9c0,0.7-0.2,0.9-0.9,0.8C-170.3,468.7-171.3,468.7-172.5,468.7z"/>
		<path class="st0" d="M-230,465.2c-0.1,1,0.5,2.6-0.2,3.3c-0.7,0.6-2.3,0.2-3.5,0.2c-1,0-2,0-3,0c-0.7,0-0.8-0.2-0.8-0.8
			c0-2,0-3.9,0-5.9c0-0.7,0.3-0.9,0.9-0.8c1.9,0,3.8,0,5.7,0c0.7,0,0.9,0.2,0.8,0.9C-230,463.1-230,464-230,465.2z"/>
		<path class="st0" d="M-260.6,465c0,1,0,1.9,0,2.9c0,0.6-0.1,0.9-0.8,0.8c-2,0-4,0-6,0c-0.6,0-0.7-0.2-0.7-0.8c0-2,0-4,0-6
			c0-0.7,0.3-0.8,0.8-0.8c2,0,3.9,0,5.9,0c0.7,0,0.8,0.2,0.8,0.8C-260.6,463-260.6,464-260.6,465L-260.6,465z"/>
		<path class="st0" d="M-268.4,465.2c-0.1,1,0.5,2.6-0.3,3.3c-0.7,0.6-2.3,0.2-3.5,0.2c-1.2,0-2.9,0.5-3.5-0.2s-0.2-2.4-0.2-3.6
			c0-1,0-2,0-3c0-0.5,0.1-0.7,0.7-0.7c2,0,4.1,0,6.1,0c0.6,0,0.7,0.3,0.7,0.8C-268.4,463-268.4,464-268.4,465.2z"/>
		<path class="st0" d="M-295.5,468.7c-1-0.1-2.6,0.5-3.2-0.2s-0.2-2.2-0.2-3.3c0-1.1,0-2.2,0-3.2c0-0.5,0.2-0.7,0.7-0.7
			c2,0,4.1,0,6.1,0c0.6,0,0.7,0.3,0.7,0.8c0,2,0,4,0,6c0,0.6-0.2,0.8-0.7,0.7C-293.1,468.7-294.1,468.7-295.5,468.7z"/>
		<path class="st0" d="M-299.1,465.1c0,1,0,1.9,0,2.9c0,0.7-0.2,0.8-0.8,0.8c-2,0-3.9,0-5.9,0c-0.6,0-0.8-0.1-0.8-0.8c0-2,0-4,0-6
			c0-0.6,0.2-0.7,0.8-0.7c2,0,4,0,6,0c0.6,0,0.8,0.1,0.8,0.7C-299.1,463-299.1,464-299.1,465.1L-299.1,465.1z"/>
		<path class="st0" d="M-306.7,465.1c0,0.9,0,1.8,0,2.8c0,0.6-0.1,0.9-0.8,0.9c-2,0-3.9,0-5.9,0c-0.6,0-0.8-0.1-0.8-0.8c0-2,0-4,0-6
			c0-0.6,0.2-0.7,0.8-0.7c2,0,4,0,6,0c0.6,0,0.8,0.1,0.8,0.7C-306.8,463-306.8,464.1-306.7,465.1
			C-306.8,465.1-306.8,465.1-306.7,465.1z"/>
		<path class="st0" d="M-364.2,468.7c-1,0-1.9,0-2.9,0c-0.7,0-0.8-0.2-0.8-0.8c0-2,0-3.9,0-5.9c0-0.7,0.2-0.9,0.9-0.8
			c1.9,0,3.8,0,5.7,0c0.6,0,0.9,0.1,0.8,0.8c0,2,0,4,0,6c0,0.7-0.2,0.8-0.8,0.8C-362.2,468.7-363.2,468.7-364.2,468.7z"/>
		<path class="st0" d="M-110.7,541.5c-1.2,0-2.9,0.6-3.5-0.2c-0.6-0.7-0.2-2.3-0.2-3.5s-0.5-2.9,0.2-3.6c0.7-0.6,2.3-0.2,3.5-0.2
			s2.8-0.4,3.5,0.2c0.8,0.7,0.2,2.3,0.2,3.6c0,1.2,0.5,2.9-0.2,3.6C-107.9,542-109.5,541.5-110.7,541.5z"/>
		<path class="st0" d="M-114.7,537.9c0,1,0,1.9,0,2.9c0,0.6-0.2,0.8-0.8,0.8c-2,0-3.9,0-5.9,0c-0.6,0-0.8-0.1-0.8-0.8c0-2,0-4,0-6
			c0-0.6,0.2-0.8,0.7-0.7c2,0,4,0,6,0c0.7,0,0.8,0.3,0.8,0.9C-114.7,535.9-114.7,536.9-114.7,537.9L-114.7,537.9z"/>
		<path class="st0" d="M-145.2,537.9c0-1,0-2,0-3c0-0.7,0.2-0.9,0.9-0.9c1.9,0,3.8,0,5.8,0c0.6,0,0.8,0.1,0.8,0.8c0,2,0,4,0,6
			c0,0.6-0.2,0.7-0.8,0.7c-2,0-3.9,0-5.9,0c-0.7,0-0.9-0.3-0.8-0.9C-145.2,539.8-145.2,538.9-145.2,537.9L-145.2,537.9z"/>
		<path class="st0" d="M-337.2,537.8c0,1,0,1.9,0,2.9c0,0.6-0.2,0.8-0.8,0.8c-2,0-3.9,0-5.9,0c-0.6,0-0.8-0.1-0.8-0.8c0-2,0-4,0-6
			c0-0.6,0.2-0.8,0.7-0.7c2,0,4,0,6,0c0.7,0,0.8,0.3,0.8,0.9C-337.2,535.8-337.2,536.8-337.2,537.8L-337.2,537.8z"/>
		<path class="st0" d="M-360.2,537.9c-0.1,1,0.5,2.6-0.2,3.3c-0.7,0.6-2.3,0.2-3.5,0.2c-1,0-2,0-3,0c-0.7,0-0.8-0.2-0.8-0.8
			c0-2,0-3.9,0-5.9c0-0.6,0.1-0.8,0.8-0.8c2,0,3.9,0,5.9,0c0.7,0,0.9,0.2,0.8,0.9C-360.4,535.8-360.2,536.7-360.2,537.9z"/>
		<path class="st0" d="M-111.1,461.1c-1-0.1-2.5,0.5-3.2-0.2c-0.6-0.7-0.2-2.2-0.2-3.3c0-1,0-2.1,0-3.1c0-0.6,0.2-0.8,0.8-0.8
			c2,0,3.9,0,5.9,0c0.6,0,0.8,0.1,0.8,0.8c0,2,0,4,0,6c0,0.6-0.2,0.7-0.8,0.7C-108.9,461-109.9,461.1-111.1,461.1z"/>
		<path class="st0" d="M-122.2,457.3c0-1.2-0.5-2.8,0.1-3.5c0.7-0.8,2.3-0.2,3.5-0.2s2.9-0.6,3.5,0.2c0.6,0.7,0.2,2.3,0.2,3.5
			c0,1,0,1.9,0,2.9c0,0.6-0.1,0.9-0.8,0.9c-2,0-4,0-6,0c-0.6,0-0.8-0.2-0.7-0.8C-122.2,459.3-122.2,458.3-122.2,457.3L-122.2,457.3z
			"/>
		<path class="st0" d="M-141.6,445.7c-1,0-1.9,0-2.9,0c-0.7,0-0.8-0.2-0.8-0.8c0-1.9,0-3.8,0-5.8c0-0.6,0.1-0.9,0.8-0.9
			c1.9,0,3.8,0,5.8,0c0.7,0,0.9,0.2,0.9,0.9c0,1.9,0,3.8,0,5.8c0,0.6-0.1,0.9-0.8,0.8C-139.6,445.6-140.6,445.7-141.6,445.7z"/>
		<path class="st0" d="M-130.2,442.3c-0.1,1,0.5,2.5-0.2,3.2c-0.7,0.6-2.2,0.2-3.3,0.2c-1.3,0-2.9,0.5-3.7-0.2
			c-0.6-0.7-0.2-2.3-0.2-3.6c0-0.8,0.1-1.6,0-2.4c-0.1-1,0.1-1.3,1.2-1.3c1.8,0.1,3.6,0.1,5.4,0c0.7,0,0.9,0.1,0.9,0.9
			C-130.2,440.1-130.2,441.1-130.2,442.3z"/>
		<path class="st0" d="M-114.4,441.9c0-1.2-0.5-2.8,0.1-3.5c0.7-0.8,2.3-0.2,3.5-0.2c1,0,2,0,3,0c0.5,0,0.7,0.2,0.7,0.7
			c0,2,0,4.1,0,6.1c0,0.4-0.1,0.7-0.6,0.7c-2.1,0-4.2,0-6.2,0c-0.6,0-0.6-0.3-0.6-0.7C-114.5,443.9-114.5,442.9-114.4,441.9
			C-114.5,441.9-114.5,441.9-114.4,441.9z"/>
		<path class="st0" d="M-360.2,522.4c0,0.9-0.1,1.8,0,2.8c0.1,0.8-0.3,0.9-1,0.9c-1.9,0-3.8,0-5.6,0c-0.7,0-0.9-0.2-0.9-0.9
			c0-1.9,0.1-3.8,0-5.8c0-0.7,0.2-0.9,0.9-0.9c1.9,0,3.8,0,5.8,0c0.6,0,0.8,0.2,0.8,0.8C-360.4,520.4-360.2,521.4-360.2,522.4
			L-360.2,522.4z"/>
		<path class="st0" d="M-341,526c-1,0-1.9,0-2.9,0c-0.6,0-0.8-0.1-0.8-0.8c0-2,0-3.9,0-5.9c0-0.6,0.2-0.8,0.8-0.8c2,0,3.9,0,5.9,0
			c0.6,0,0.8,0.1,0.8,0.7c0,2,0,4,0,6c0,0.6-0.2,0.7-0.8,0.7C-339,526-340,526-341,526z"/>
		<path class="st0" d="M-333.2,518.7c1.2,0,2.7-0.6,3.4,0.2c0.6,0.7,0.2,2.2,0.2,3.3c0,1.3,0.6,2.9-0.2,3.7
			c-0.7,0.6-2.3,0.2-3.6,0.2c-1.2,0-2.8,0.5-3.4-0.2s-0.2-2.2-0.2-3.3c0-1.3-0.5-2.9,0.2-3.7C-336.1,518.2-334.5,518.7-333.2,518.7z
			"/>
		<path class="st0" d="M-149,518.8c1,0.1,2.6-0.5,3.3,0.2c0.6,0.7,0.2,2.3,0.2,3.5s0.4,2.8-0.2,3.5c-0.7,0.8-2.3,0.2-3.6,0.2
			c-1,0-1.9,0-2.9,0c-0.6,0-0.8-0.1-0.8-0.8c0-2,0-3.9,0-5.9c0-0.6,0.2-0.8,0.8-0.8C-151.1,518.8-150.1,518.8-149,518.8z"/>
		<path class="st0" d="M-141.5,526.2c-1,0-1.9,0-2.9,0c-0.6,0-0.8-0.2-0.8-0.8c0-2,0-3.9,0-5.9c0-0.6,0.1-0.8,0.7-0.8c2,0,4,0,6,0
			c0.6,0,0.7,0.2,0.7,0.8c0,2,0,3.9,0,5.9c0,0.6-0.1,0.9-0.8,0.8C-139.5,526.2-140.5,526.2-141.5,526.2z"/>
		<path class="st0" d="M-114.7,522.5c0,1,0,1.9,0,2.9c0,0.6-0.1,0.9-0.8,0.8c-2,0-4,0-6,0c-0.5,0-0.7-0.2-0.7-0.7c0-2,0-4.1,0-6.1
			c0-0.5,0.2-0.7,0.7-0.7c2,0,4,0,6,0c0.6,0,0.8,0.2,0.7,0.8C-114.7,520.5-114.7,521.5-114.7,522.5L-114.7,522.5z"/>
		<path class="st0" d="M-107,522.5c0,1,0,2,0,3c0,0.5-0.2,0.7-0.7,0.7c-2,0-4.1,0-6.1,0c-0.4,0-0.7-0.1-0.7-0.6c0-2.1,0-4.2,0-6.2
			c0-0.6,0.3-0.6,0.7-0.6c2,0,4,0,6,0c0.6,0,0.7,0.2,0.7,0.8C-107.1,520.5-107,521.5-107,522.5L-107,522.5z"/>
		<path class="st0" d="M-364.2,453.3c-1.2,0-2.8,0.5-3.5-0.1c-0.8-0.7-0.2-2.3-0.2-3.5s-0.5-2.8,0.2-3.5c0.7-0.6,2.3-0.2,3.5-0.2
			c1,0,1.9,0,2.9,0c0.6,0,0.9,0.1,0.8,0.8c0,2,0,4,0,6c0,0.6-0.2,0.8-0.7,0.7C-362.2,453.3-363.2,453.4-364.2,453.3L-364.2,453.3z"
			/>
		<path class="st0" d="M-341.2,453.4c-1.2-0.1-2.8,0.5-3.5-0.3c-0.6-0.7-0.2-2.3-0.2-3.5s-0.5-2.9,0.2-3.5s2.3-0.2,3.5-0.2
			s2.8-0.4,3.5,0.2c0.8,0.7,0.2,2.3,0.2,3.5s0.4,2.8-0.2,3.5C-338.4,453.9-340,453.3-341.2,453.4z"/>
		<path class="st0" d="M-333.4,446c1.2,0,2.7-0.5,3.4,0.1c0.8,0.7,0.2,2.2,0.2,3.4c0,1.2,0.4,2.9-0.2,3.6c-0.7,0.8-2.4,0.2-3.7,0.2
			c-1.2,0-2.8,0.5-3.4-0.2s-0.2-2.2-0.2-3.4c0-1.3-0.6-3,0.3-3.7C-336.2,445.5-334.7,446-333.4,446z"/>
		<path class="st0" d="M-322.2,449.6c0,1.2,0.5,2.8-0.1,3.5c-0.7,0.8-2.3,0.2-3.5,0.2s-2.8,0.4-3.5-0.2c-0.8-0.7-0.2-2.3-0.2-3.5
			s-0.4-2.8,0.2-3.5c0.7-0.8,2.3-0.2,3.5-0.3c1,0,1.9,0,2.9,0c0.7,0,0.9,0.2,0.9,0.9C-322.2,447.7-322.1,448.7-322.2,449.6
			L-322.2,449.6z"/>
		<path class="st0" d="M-299.1,449.7c0,1,0,1.9,0,2.9c0,0.6-0.1,0.8-0.8,0.8c-2,0-3.9,0-5.9,0c-0.6,0-0.8-0.1-0.8-0.8
			c0-2,0-3.9,0-5.9c0-0.6,0.1-0.9,0.8-0.8c2,0,3.9,0,5.9,0c0.6,0,0.9,0.1,0.8,0.8C-299.1,447.7-299.1,448.7-299.1,449.7
			L-299.1,449.7z"/>
		<path class="st0" d="M-295.1,453.3c-1.2,0-2.8,0.6-3.5-0.2c-0.6-0.7-0.2-2.3-0.2-3.5s-0.5-2.9,0.2-3.5s2.3-0.2,3.5-0.2
			s2.8-0.5,3.5,0.2c0.6,0.7,0.2,2.3,0.2,3.5s0.5,2.9-0.2,3.5C-292.4,453.8-294,453.3-295.1,453.3z"/>
		<path class="st0" d="M-145.2,530.1c0-1,0-1.9,0-2.9c0-0.6,0.1-0.9,0.8-0.8c2,0,4,0,6,0c0.5,0,0.7,0.1,0.7,0.7c0,2,0,4.1,0,6.1
			c0,0.5-0.1,0.7-0.7,0.7c-2,0-4.1,0-6.1,0c-0.6,0-0.7-0.3-0.7-0.8C-145.2,532.1-145.2,531.1-145.2,530.1L-145.2,530.1z"/>
		<path class="st0" d="M-337.4,530.1c0,1.2,0.6,2.8-0.2,3.4c-0.7,0.6-2.2,0.2-3.4,0.2c-1.3,0-2.9,0.6-3.7-0.2
			c-0.6-0.7-0.2-2.3-0.2-3.6c0-1.2-0.5-2.8,0.2-3.4c0.6-0.6,2.2-0.2,3.3-0.2c1.3,0,3-0.6,3.7,0.2
			C-336.9,527.2-337.4,528.9-337.4,530.1z"/>
		<path class="st0" d="M-364.2,533.7c-1.2-0.1-2.8,0.6-3.4-0.2c-0.6-0.7-0.2-2.2-0.2-3.4c0-1.3-0.6-2.9,0.2-3.7
			c0.7-0.6,2.4-0.2,3.6-0.2s2.7-0.4,3.4,0.2c0.8,0.7,0.2,2.2,0.2,3.4c0,1.3,0.6,3-0.2,3.7C-361.2,534.1-362.9,533.7-364.2,533.7z"/>
		<path class="st0" d="M-107.2,449.7c-0.1,1.2,0.6,2.8-0.2,3.4c-0.7,0.6-2.2,0.2-3.4,0.2c-1.3,0-2.9,0.6-3.7-0.2
			c-0.6-0.7-0.2-2.4-0.2-3.6s-0.5-2.8,0.2-3.4s2.2-0.2,3.3-0.2c1.3,0,3-0.6,3.7,0.3C-106.7,446.9-107.2,448.5-107.2,449.7z"/>
		<path class="st0" d="M-130.2,449.6c0,1.2,0.5,2.8-0.1,3.5c-0.7,0.8-2.3,0.2-3.5,0.2s-2.9,0.5-3.5-0.2c-0.6-0.7-0.2-2.3-0.2-3.5
			s-0.5-2.8,0.3-3.5c0.7-0.6,2.3-0.2,3.5-0.2s2.8-0.4,3.5,0.2C-129.6,446.8-130.3,448.4-130.2,449.6z"/>
		<path class="st0" d="M-137.9,449.6c0,1.2,0.5,2.8-0.1,3.5c-0.7,0.8-2.3,0.2-3.5,0.2s-2.8,0.5-3.5-0.2c-0.6-0.7-0.2-2.3-0.2-3.5
			s-0.5-2.9,0.2-3.5s2.3-0.2,3.5-0.2s2.9-0.5,3.5,0.2C-137.4,446.8-137.9,448.4-137.9,449.6L-137.9,449.6z"/>
		<path class="st0" d="M-160.9,449.7c0,1.2,0.5,2.8-0.1,3.5c-0.7,0.8-2.3,0.2-3.5,0.2s-2.8,0.4-3.5-0.2c-0.8-0.7-0.2-2.3-0.2-3.5
			s-0.4-2.8,0.2-3.5c0.7-0.8,2.3-0.2,3.5-0.2c0.9,0,1.8,0.1,2.8,0c0.8-0.1,1,0.3,1,1C-160.9,447.8-160.9,448.7-160.9,449.7
			L-160.9,449.7z"/>
		<path class="st0" d="M-172.5,453.4c-1-0.1-2.6,0.5-3.3-0.3c-0.6-0.7-0.2-2.3-0.2-3.5s-0.4-2.8,0.2-3.5c0.7-0.8,2.3-0.2,3.5-0.3
			c1,0,1.9,0,2.9,0c0.6,0,0.9,0.1,0.9,0.8c0,2,0,4,0,6c0,0.6-0.2,0.8-0.8,0.7C-170.3,453.3-171.3,453.4-172.5,453.4z"/>
		<path class="st0" d="M-199,449.6c0-1.2-0.5-2.8,0.1-3.5c0.7-0.8,2.3-0.2,3.5-0.3c1,0,1.9,0,2.9,0c0.6,0,0.9,0.1,0.9,0.8
			c0,2,0,4,0,6c0,0.6-0.2,0.7-0.8,0.7c-2,0-4,0-6,0c-0.6,0-0.8-0.2-0.7-0.8C-199,451.6-199,450.6-199,449.6L-199,449.6z"/>
		<path class="st0" d="M-199.3,449.7c0,1.2,0.6,2.8-0.2,3.4c-0.7,0.6-2.2,0.2-3.4,0.2c-1.3,0-2.9,0.6-3.7-0.2
			c-0.6-0.7-0.2-2.4-0.2-3.6s-0.5-2.8,0.2-3.4s2.2-0.2,3.4-0.2c1.3,0,3-0.6,3.7,0.2C-198.8,446.9-199.3,448.5-199.3,449.7z"/>
		<path class="st0" d="M-206.9,449.7c0,1,0,2,0,3c0,0.5-0.2,0.7-0.7,0.7c-2,0-4.1,0-6.1,0c-0.5,0-0.7-0.2-0.7-0.7c0-2,0-4.1,0-6.1
			c0-0.5,0.2-0.7,0.7-0.7c2,0,4.1,0,6.1,0c0.5,0,0.7,0.2,0.7,0.7C-207,447.6-206.9,448.7-206.9,449.7L-206.9,449.7z"/>
		<path class="st0" d="M-233.7,446c1.2,0,2.8-0.5,3.5,0.1c0.8,0.7,0.2,2.3,0.2,3.5s0.5,2.8-0.2,3.5c-0.7,0.6-2.3,0.2-3.5,0.2
			s-2.8,0.5-3.5-0.2c-0.6-0.7-0.2-2.3-0.2-3.5s-0.5-2.9,0.2-3.5S-234.9,446-233.7,446z"/>
		<path class="st0" d="M-268.1,449.3c0.1-1-0.5-2.6,0.3-3.2c0.7-0.6,2.2-0.2,3.4-0.2c1,0,2.1,0,3.1,0c0.6,0,0.7,0.2,0.7,0.8
			c0,2,0,4,0,6c0,0.6-0.2,0.8-0.7,0.7c-2,0-4,0-6,0c-0.6,0-0.8-0.2-0.7-0.7C-268.1,451.6-268.1,450.6-268.1,449.3z"/>
		<path class="st0" d="M-272,446c1.2,0.1,2.8-0.6,3.4,0.2c0.6,0.7,0.2,2.2,0.2,3.4c0,1.3,0.6,2.9-0.2,3.7c-0.7,0.6-2.4,0.2-3.6,0.2
			s-2.8,0.5-3.4-0.2s-0.2-2.2-0.2-3.4c0-1.3-0.5-3,0.2-3.7C-274.9,445.5-273.1,446-272,446z"/>
		<path class="st0" d="M-325.6,557c0.9,0,3.7,0.3,4.7,0.3c0.6,0,0.9,0.1,0.9,0.8c0,2,0,3.9,0,5.9c0,0.6-0.1,0.9-0.8,0.8
			c-2,0-5.9-0.3-7.9-0.3c-0.7,0-0.8-0.2-0.8-0.8c0-2,0-3.9,0-5.9c0-0.7,0.2-0.9,0.9-0.8C-327.6,557-326.6,557-325.6,557z"/>
		<path class="st0" d="M-333.2,541.5c0.9,0,1.8,0,2.8,0c0.6,0,0.9,0.1,0.9,0.8c0,2,0,3.9,0,5.9c0,0.6-0.1,0.9-0.8,0.8c-2,0-4,0-6,0
			c-0.7,0-0.8-0.2-0.8-0.8c0-2,0-3.9,0-5.9c0-0.7,0.2-0.9,0.9-0.8C-335.2,541.5-334.2,541.5-333.2,541.5z"/>
		<path class="st0" d="M-333.2,534c0.9,0,1.8,0,2.8,0c0.6,0,0.9,0.1,0.9,0.8c0,2,0,3.9,0,5.9c0,0.6-0.1,0.9-0.8,0.8c-2,0-4,0-6,0
			c-0.7,0-0.8-0.2-0.8-0.8c0-2,0-3.9,0-5.9c0-0.7,0.2-0.9,0.9-0.8C-335.2,534-334.2,534-333.2,534z"/>
		<path class="st0" d="M-333.2,526.3c1.2,0,2.7-0.6,3.4,0.2c0.6,0.7,0.2,2.2,0.2,3.3c0,1.3,0.6,2.9-0.2,3.7
			c-0.7,0.6-2.3,0.2-3.6,0.2c-1.2,0-2.8,0.5-3.4-0.2s-0.2-2.2-0.2-3.3c0-1.3-0.5-2.9,0.2-3.7C-336.1,525.9-334.5,526.3-333.2,526.3z
			"/>
		<path class="st0" d="M-325.6,518.5c1.2,0,4.6-0.3,5.3,0.5c0.6,0.7,0.2,2.2,0.2,3.3c0,1.3,0.6,2.9-0.2,3.7
			c-0.7,0.6-4.2-0.1-5.5-0.1c-1.2,0-2.8,0.5-3.4-0.2s-0.2-2.2-0.2-3.3c0-1.3-0.5-2.9,0.2-3.7C-328.5,518-326.9,518.5-325.6,518.5z"
			/>
		<path class="st0" d="M-325.6,510.8c1.2,0,4.6-0.3,5.3,0.5c0.6,0.7,0.2,2.2,0.2,3.3c0,1.3,0.6,2.9-0.2,3.7
			c-0.7,0.6-4.2-0.1-5.5-0.1c-1.2,0-2.8,0.5-3.4-0.2s-0.2-2.2-0.2-3.3c0-1.3-0.5-2.9,0.2-3.7C-328.5,510.3-326.9,510.8-325.6,510.8z
			"/>
		<path class="st0" d="M-325.6,503.3c1.2,0,4.6-0.3,5.3,0.5c0.6,0.7,0.2,2.2,0.2,3.3c0,1.3,0.6,2.9-0.2,3.7
			c-0.7,0.6-4.2-0.1-5.5-0.1c-1.2,0-2.8,0.5-3.4-0.2s-0.2-2.2-0.2-3.3c0-1.3-0.5-2.9,0.2-3.7C-328.5,502.8-326.9,503.3-325.6,503.3z
			"/>
	</g>
	<g>
		<path class="st1" d="M-232.3,540.6c0.1,6.1-1.4,11.8-5,16.6c-4.2,5.5-9.8,8.7-16.5,9.4c-4.5,0.5-9,0.1-13.2-1.8
			c-6.7-3.1-11.1-8.4-13.1-15.6c-1.7-6.2-1.7-12.5,0.9-18.4c3.6-8.4,9.9-13.7,18.7-14.9c6.8-1,13.2,0.4,18.7,4.8
			c4.3,3.4,7.4,7.8,8.7,13.3C-232.6,536.1-232.3,538.4-232.3,540.6z M-243.6,540.9c0-2.5-0.4-4.9-1.4-7.3c-2-4.7-5.6-7.3-10.6-7.8
			c-5-0.5-9.2,1.5-11.8,6c-2.8,5-3.2,10.5-1.1,15.9c1.8,4.7,5.2,7.9,10.4,8.3c4.4,0.4,8.1-0.9,11.1-4.4
			C-244.4,548.8-243.7,544.9-243.6,540.9z"/>
		<path class="st1" d="M-228,541.1c0-8,0-16,0-24c0-0.9,0.3-1.2,1.1-1.2c5.3,0,10.8,0,16.1,0c6.9,0.1,13,2.5,17.5,8.1
			c2.5,3.1,4.2,6.8,4.8,10.9c0.3,1.6,0.3,3,0.4,4.6c0.4,4.5-0.3,8.8-2,13c-0.9,2-2.1,3.8-3.5,5.5c-3.5,4.4-8.1,6.6-13.4,7.7
			c-1.6,0.3-3.1,0.4-4.6,0.4c-5,0-10.2,0-15.2,0c-1.2,0-1.2-0.1-1.2-1.3C-228,557-228,549.1-228,541.1L-228,541.1z M-217.1,540.9
			L-217.1,540.9c0,4.4,0,8.8,0,13.3c0,1.7,0,1.7,1.6,1.7c2.6,0,5.2,0.2,7.9-0.9c3.3-1.3,6-3.3,7.4-6.8c1.6-4.5,1.6-9,0.2-13.5
			c-1.3-4-3.9-6.7-8-7.9c-2.7-0.7-5.4-0.9-8.2-0.9c-0.7,0-0.9,0.1-0.9,0.9C-217.1,531.5-217.1,536.3-217.1,540.9z"/>
		<path class="st1" d="M-183.8,541c0-7.9,0-15.9,0-23.8c0-1.3,0-1.3,1.2-1.3c8.4,0,16.9,0,25.3,0c0.9,0,1.2,0.3,1.2,1.2
			c0,2.7,0,5.4,0,8.2c0,0.9-0.2,1.2-1.1,1.1c-4.9,0-9.9,0-14.8,0c-0.6,0-0.9,0.1-0.9,0.8c0.1,2.5,0,5,0,7.7c0,0.7,0.1,1,0.9,1
			c4.8,0,9.8,0,14.7,0c0.9,0,1.2,0.3,1.2,1.2c0,2.7,0,5.3,0,8.1c0,0.8-0.3,1.1-1.1,1.1c-4.9,0-10,0-14.9,0c-0.6,0-0.7,0.1-0.7,0.7
			c0,2.7,0,5.4,0,8.2c0,0.7,0.3,0.8,0.8,0.8c4.9,0,9.9,0,14.8,0c0.9,0,1.2,0.3,1.2,1.2c0,2.7,0,5.4,0,8.2c0,0.9-0.3,1.1-1.1,1.1
			c-8.5,0-16.9,0-25.4,0c-0.7,0-1.2-0.1-1.2-1.1C-183.8,557.1-183.9,549.2-183.8,541C-183.9,541-183.8,541-183.8,541z"/>
		<path class="st1" d="M-321,543c0-0.1,0-0.1,0-0.2c0-1.9,0-3.8,0.3-5.7c0-0.1,0-0.1,0-0.2c0.1-0.8,0.3-1.6,0.4-2.4
			c0.1-0.3,0.1-0.5,0.2-0.8c0.3-0.9,0.6-1.7,0.9-2.5c0-0.1,0-0.1,0.1-0.2c0.8-2,1.8-3.9,3.2-5.7c0.1-0.1,0.1-0.1,0.2-0.2
			c0.4-0.6,0.9-1.1,1.3-1.6c2.6-2.8,5.5-5.1,9.1-6.5c5.6-2.1,11.3-1.8,17-0.1c1.6,0.5,3.1,1.1,4.6,1.7c0.5,0.2,0.7,0.5,0.7,1.1
			c0,3.7,0,7.4,0,11.1c0,0.8-0.3,0.9-1.1,0.4c-1.7-1.1-3.6-2-5.5-2.8c-3.3-1.3-6.6-2.1-10.2-1.3c-4,0.9-6.8,3.3-8.4,7.4
			c-1.7,4.8-2,9.6,0.1,14.3c2,4.7,5.7,7,10.8,7.4c3.9,0.3,7.6-1.1,11.1-2.8c0.8-0.4,1.6-0.9,2.3-1.3c0.8-0.4,1-0.3,1,0.6
			c0,0.7,0,1.4,0,2c0,2.9,0,5.7,0,8.7c0,0.5-0.1,0.9-0.6,1.1c-4.7,1.6-9.4,2.8-14.3,2.7c-5-0.1-9.7-1.7-13.7-4.9
			c-1-0.8-1.8-1.7-2.7-2.7c-1.1-1.4-2.1-2.8-3.1-4.3c-1.2-2.1-2-4.4-2.6-6.7C-320.6,546.4-320.8,544.6-321,543z"/>
	</g>
</g>
</svg>
